<svg width="21" height="20" viewBox="0 0 21 20" fill="none" xmlns="http://www.w3.org/2000/svg">
<mask id="path-1-outside-1_3050_3675" maskUnits="userSpaceOnUse" x="1.27246" y="0" width="19" height="15" fill="black">
<rect fill="white" x="1.27246" width="19" height="15"/>
<path d="M18.3401 1H19.9638L20.0486 1.03635L20.1334 1.12117L20.1819 1.21811L20.194 1.33929V7.34949L20.1455 7.44643L20.0365 7.53125L19.9396 7.55548L18.9459 7.5676H18.5218L18.3401 7.55548L18.2189 7.4949L18.1583 7.42219L18.1341 7.33737V6.80421H17.7221L17.6736 6.81633L17.6494 6.8648L17.5403 7.07079L17.407 7.26467L17.2737 7.42219L17.1162 7.51913L16.9223 7.61607L16.789 7.66454L16.583 7.70089L16.4255 7.71301H15.3713L15.3592 7.72513L15.3471 10.8151L15.3228 10.8756L15.2744 10.9362L15.1774 10.9847L15.129 10.9968L14.9714 11.0089H2.53904L2.42999 10.9847L2.33305 10.912L2.28458 10.8151L2.27246 8.64605V4.80485L2.28458 4.05357L2.34517 3.9324L2.4421 3.84758L2.47846 3.83546L10.6334 3.82334L10.694 3.76276L10.8273 3.60523L10.9242 3.48406L11.0818 3.29018L11.1908 3.15689L11.2999 3.01148L11.4453 2.84184L11.5422 2.7449L11.6392 2.59949L11.7361 2.47832L11.8815 2.32079L11.9906 2.17538L12.0875 2.05421L12.2087 1.94515L12.342 1.8361L12.4753 1.73916L12.6328 1.66645L12.8509 1.60587L12.9963 1.58163L13.1417 1.56952L18.1219 1.5574L18.1341 1.23023L18.1825 1.10906L18.2674 1.03635L18.3401 1ZM19.0186 1.5574L18.6915 1.56952V6.96173L18.7036 7.02232L18.7521 7.03444H19.6245L19.6487 7.0102V1.64222L19.6366 1.56952L19.2973 1.5574H19.0186ZM13.6991 2.09056L13.1538 2.10268L12.9478 2.13903L12.7903 2.19962L12.6691 2.28444L12.4753 2.44196L12.3783 2.55102L12.2935 2.68431L12.1845 2.80548L12.039 2.97513L11.9058 3.15689L11.8088 3.25383L11.6998 3.38712L11.5422 3.58099L11.3968 3.76276V3.82334L11.4089 3.83546L11.6028 3.84758L13.1417 3.83546L13.2387 3.75064L13.3841 3.60523L13.481 3.52041L13.6143 3.35077L13.7597 3.20536L13.8445 3.13265L13.9415 3.01148L14.0263 2.91454L14.1232 2.82972L14.2686 2.69643L14.3292 2.66008L14.3898 2.64796H14.4746L14.5837 2.68431L14.6564 2.79337L14.6806 2.91454L14.6443 3.04783L14.5716 3.15689L14.4746 3.24171L14.3171 3.39923L14.208 3.53253L13.893 3.84758L13.8082 3.94452L13.6385 4.12628L13.4931 4.27168L13.4083 4.36862L13.1538 4.62309L13.069 4.72003L12.8994 4.88967L12.8146 4.98661L12.6207 5.18048L12.5359 5.27742L12.3904 5.42283L12.3056 5.51977L12.1723 5.65306L12.0633 5.81059L12.0148 5.95599V6.13775L12.0633 6.29528L12.1723 6.42857L12.3177 6.54974L12.4268 6.59821L12.5964 6.61033L12.7661 6.57398L12.9115 6.48916L13.0569 6.35587L13.1538 6.27105L13.2387 6.18622L13.3356 6.1014L13.5779 5.85906L13.6749 5.77423L13.8809 5.58036L14.0384 5.44707L14.2565 5.31378L14.4262 5.25319L14.4867 5.24107L14.6564 5.22895L16.3771 5.21684L16.5103 5.1926L16.583 5.13202L16.6194 5.02296L16.6558 4.8412L16.7163 4.75638L16.8375 4.69579H16.9829L17.1041 4.75638L17.1647 4.82908L17.1889 4.90179V5.05931L17.1283 5.25319L17.0556 5.38648L16.9587 5.50765L16.8375 5.61671L16.6436 5.71365L16.4498 5.76212L15.4198 5.77423L15.3471 5.78635V7.13138L15.6985 7.14349H16.5103L16.6679 7.13138L16.8133 7.08291L16.9102 7.02232L16.995 6.90115L17.1162 6.68304L17.201 6.54974L17.2859 6.44069L17.3828 6.35587L17.5282 6.3074L17.6615 6.28316L18.1219 6.27105L18.1341 6.24681V2.17538L18.1219 2.10268L18.0977 2.09056H13.6991ZM3.10856 4.36862L2.81774 4.38074V10.4636L2.82986 10.4758H14.7776L14.7897 5.87117L14.7654 5.78635L14.7533 5.77423H14.6443L14.4989 5.81059L14.3535 5.88329L14.2323 5.99235L14.0263 6.19834L13.893 6.3074L13.6506 6.54974L13.5537 6.63457L13.4083 6.77997L13.3114 6.8648L13.166 6.97385L13.0205 7.04656L12.7418 7.11926L12.657 7.13138H12.4874L12.3056 7.09503L12.1239 7.04656L12.0027 6.98597L11.8088 6.82844L11.6876 6.69515L11.6271 6.59821L11.5301 6.31952L11.4938 6.18622L11.4816 6.07717V5.95599L11.5301 5.72577L11.6149 5.51977L11.6998 5.38648L11.8452 5.21684L11.9785 5.09566L12.0633 4.99872L12.0754 4.96237H12.0996L12.1845 4.86543L12.3783 4.68367L12.5722 4.44133L12.5843 4.39286L12.5722 4.38074L12.0027 4.36862H3.10856Z"/>
</mask>
<path d="M18.3401 1H19.9638L20.0486 1.03635L20.1334 1.12117L20.1819 1.21811L20.194 1.33929V7.34949L20.1455 7.44643L20.0365 7.53125L19.9396 7.55548L18.9459 7.5676H18.5218L18.3401 7.55548L18.2189 7.4949L18.1583 7.42219L18.1341 7.33737V6.80421H17.7221L17.6736 6.81633L17.6494 6.8648L17.5403 7.07079L17.407 7.26467L17.2737 7.42219L17.1162 7.51913L16.9223 7.61607L16.789 7.66454L16.583 7.70089L16.4255 7.71301H15.3713L15.3592 7.72513L15.3471 10.8151L15.3228 10.8756L15.2744 10.9362L15.1774 10.9847L15.129 10.9968L14.9714 11.0089H2.53904L2.42999 10.9847L2.33305 10.912L2.28458 10.8151L2.27246 8.64605V4.80485L2.28458 4.05357L2.34517 3.9324L2.4421 3.84758L2.47846 3.83546L10.6334 3.82334L10.694 3.76276L10.8273 3.60523L10.9242 3.48406L11.0818 3.29018L11.1908 3.15689L11.2999 3.01148L11.4453 2.84184L11.5422 2.7449L11.6392 2.59949L11.7361 2.47832L11.8815 2.32079L11.9906 2.17538L12.0875 2.05421L12.2087 1.94515L12.342 1.8361L12.4753 1.73916L12.6328 1.66645L12.8509 1.60587L12.9963 1.58163L13.1417 1.56952L18.1219 1.5574L18.1341 1.23023L18.1825 1.10906L18.2674 1.03635L18.3401 1ZM19.0186 1.5574L18.6915 1.56952V6.96173L18.7036 7.02232L18.7521 7.03444H19.6245L19.6487 7.0102V1.64222L19.6366 1.56952L19.2973 1.5574H19.0186ZM13.6991 2.09056L13.1538 2.10268L12.9478 2.13903L12.7903 2.19962L12.6691 2.28444L12.4753 2.44196L12.3783 2.55102L12.2935 2.68431L12.1845 2.80548L12.039 2.97513L11.9058 3.15689L11.8088 3.25383L11.6998 3.38712L11.5422 3.58099L11.3968 3.76276V3.82334L11.4089 3.83546L11.6028 3.84758L13.1417 3.83546L13.2387 3.75064L13.3841 3.60523L13.481 3.52041L13.6143 3.35077L13.7597 3.20536L13.8445 3.13265L13.9415 3.01148L14.0263 2.91454L14.1232 2.82972L14.2686 2.69643L14.3292 2.66008L14.3898 2.64796H14.4746L14.5837 2.68431L14.6564 2.79337L14.6806 2.91454L14.6443 3.04783L14.5716 3.15689L14.4746 3.24171L14.3171 3.39923L14.208 3.53253L13.893 3.84758L13.8082 3.94452L13.6385 4.12628L13.4931 4.27168L13.4083 4.36862L13.1538 4.62309L13.069 4.72003L12.8994 4.88967L12.8146 4.98661L12.6207 5.18048L12.5359 5.27742L12.3904 5.42283L12.3056 5.51977L12.1723 5.65306L12.0633 5.81059L12.0148 5.95599V6.13775L12.0633 6.29528L12.1723 6.42857L12.3177 6.54974L12.4268 6.59821L12.5964 6.61033L12.7661 6.57398L12.9115 6.48916L13.0569 6.35587L13.1538 6.27105L13.2387 6.18622L13.3356 6.1014L13.5779 5.85906L13.6749 5.77423L13.8809 5.58036L14.0384 5.44707L14.2565 5.31378L14.4262 5.25319L14.4867 5.24107L14.6564 5.22895L16.3771 5.21684L16.5103 5.1926L16.583 5.13202L16.6194 5.02296L16.6558 4.8412L16.7163 4.75638L16.8375 4.69579H16.9829L17.1041 4.75638L17.1647 4.82908L17.1889 4.90179V5.05931L17.1283 5.25319L17.0556 5.38648L16.9587 5.50765L16.8375 5.61671L16.6436 5.71365L16.4498 5.76212L15.4198 5.77423L15.3471 5.78635V7.13138L15.6985 7.14349H16.5103L16.6679 7.13138L16.8133 7.08291L16.9102 7.02232L16.995 6.90115L17.1162 6.68304L17.201 6.54974L17.2859 6.44069L17.3828 6.35587L17.5282 6.3074L17.6615 6.28316L18.1219 6.27105L18.1341 6.24681V2.17538L18.1219 2.10268L18.0977 2.09056H13.6991ZM3.10856 4.36862L2.81774 4.38074V10.4636L2.82986 10.4758H14.7776L14.7897 5.87117L14.7654 5.78635L14.7533 5.77423H14.6443L14.4989 5.81059L14.3535 5.88329L14.2323 5.99235L14.0263 6.19834L13.893 6.3074L13.6506 6.54974L13.5537 6.63457L13.4083 6.77997L13.3114 6.8648L13.166 6.97385L13.0205 7.04656L12.7418 7.11926L12.657 7.13138H12.4874L12.3056 7.09503L12.1239 7.04656L12.0027 6.98597L11.8088 6.82844L11.6876 6.69515L11.6271 6.59821L11.5301 6.31952L11.4938 6.18622L11.4816 6.07717V5.95599L11.5301 5.72577L11.6149 5.51977L11.6998 5.38648L11.8452 5.21684L11.9785 5.09566L12.0633 4.99872L12.0754 4.96237H12.0996L12.1845 4.86543L12.3783 4.68367L12.5722 4.44133L12.5843 4.39286L12.5722 4.38074L12.0027 4.36862H3.10856Z" fill="#1C3A6A"/>
<path d="M18.3401 1H19.9638L20.0486 1.03635L20.1334 1.12117L20.1819 1.21811L20.194 1.33929V7.34949L20.1455 7.44643L20.0365 7.53125L19.9396 7.55548L18.9459 7.5676H18.5218L18.3401 7.55548L18.2189 7.4949L18.1583 7.42219L18.1341 7.33737V6.80421H17.7221L17.6736 6.81633L17.6494 6.8648L17.5403 7.07079L17.407 7.26467L17.2737 7.42219L17.1162 7.51913L16.9223 7.61607L16.789 7.66454L16.583 7.70089L16.4255 7.71301H15.3713L15.3592 7.72513L15.3471 10.8151L15.3228 10.8756L15.2744 10.9362L15.1774 10.9847L15.129 10.9968L14.9714 11.0089H2.53904L2.42999 10.9847L2.33305 10.912L2.28458 10.8151L2.27246 8.64605V4.80485L2.28458 4.05357L2.34517 3.9324L2.4421 3.84758L2.47846 3.83546L10.6334 3.82334L10.694 3.76276L10.8273 3.60523L10.9242 3.48406L11.0818 3.29018L11.1908 3.15689L11.2999 3.01148L11.4453 2.84184L11.5422 2.7449L11.6392 2.59949L11.7361 2.47832L11.8815 2.32079L11.9906 2.17538L12.0875 2.05421L12.2087 1.94515L12.342 1.8361L12.4753 1.73916L12.6328 1.66645L12.8509 1.60587L12.9963 1.58163L13.1417 1.56952L18.1219 1.5574L18.1341 1.23023L18.1825 1.10906L18.2674 1.03635L18.3401 1ZM19.0186 1.5574L18.6915 1.56952V6.96173L18.7036 7.02232L18.7521 7.03444H19.6245L19.6487 7.0102V1.64222L19.6366 1.56952L19.2973 1.5574H19.0186ZM13.6991 2.09056L13.1538 2.10268L12.9478 2.13903L12.7903 2.19962L12.6691 2.28444L12.4753 2.44196L12.3783 2.55102L12.2935 2.68431L12.1845 2.80548L12.039 2.97513L11.9058 3.15689L11.8088 3.25383L11.6998 3.38712L11.5422 3.58099L11.3968 3.76276V3.82334L11.4089 3.83546L11.6028 3.84758L13.1417 3.83546L13.2387 3.75064L13.3841 3.60523L13.481 3.52041L13.6143 3.35077L13.7597 3.20536L13.8445 3.13265L13.9415 3.01148L14.0263 2.91454L14.1232 2.82972L14.2686 2.69643L14.3292 2.66008L14.3898 2.64796H14.4746L14.5837 2.68431L14.6564 2.79337L14.6806 2.91454L14.6443 3.04783L14.5716 3.15689L14.4746 3.24171L14.3171 3.39923L14.208 3.53253L13.893 3.84758L13.8082 3.94452L13.6385 4.12628L13.4931 4.27168L13.4083 4.36862L13.1538 4.62309L13.069 4.72003L12.8994 4.88967L12.8146 4.98661L12.6207 5.18048L12.5359 5.27742L12.3904 5.42283L12.3056 5.51977L12.1723 5.65306L12.0633 5.81059L12.0148 5.95599V6.13775L12.0633 6.29528L12.1723 6.42857L12.3177 6.54974L12.4268 6.59821L12.5964 6.61033L12.7661 6.57398L12.9115 6.48916L13.0569 6.35587L13.1538 6.27105L13.2387 6.18622L13.3356 6.1014L13.5779 5.85906L13.6749 5.77423L13.8809 5.58036L14.0384 5.44707L14.2565 5.31378L14.4262 5.25319L14.4867 5.24107L14.6564 5.22895L16.3771 5.21684L16.5103 5.1926L16.583 5.13202L16.6194 5.02296L16.6558 4.8412L16.7163 4.75638L16.8375 4.69579H16.9829L17.1041 4.75638L17.1647 4.82908L17.1889 4.90179V5.05931L17.1283 5.25319L17.0556 5.38648L16.9587 5.50765L16.8375 5.61671L16.6436 5.71365L16.4498 5.76212L15.4198 5.77423L15.3471 5.78635V7.13138L15.6985 7.14349H16.5103L16.6679 7.13138L16.8133 7.08291L16.9102 7.02232L16.995 6.90115L17.1162 6.68304L17.201 6.54974L17.2859 6.44069L17.3828 6.35587L17.5282 6.3074L17.6615 6.28316L18.1219 6.27105L18.1341 6.24681V2.17538L18.1219 2.10268L18.0977 2.09056H13.6991ZM3.10856 4.36862L2.81774 4.38074V10.4636L2.82986 10.4758H14.7776L14.7897 5.87117L14.7654 5.78635L14.7533 5.77423H14.6443L14.4989 5.81059L14.3535 5.88329L14.2323 5.99235L14.0263 6.19834L13.893 6.3074L13.6506 6.54974L13.5537 6.63457L13.4083 6.77997L13.3114 6.8648L13.166 6.97385L13.0205 7.04656L12.7418 7.11926L12.657 7.13138H12.4874L12.3056 7.09503L12.1239 7.04656L12.0027 6.98597L11.8088 6.82844L11.6876 6.69515L11.6271 6.59821L11.5301 6.31952L11.4938 6.18622L11.4816 6.07717V5.95599L11.5301 5.72577L11.6149 5.51977L11.6998 5.38648L11.8452 5.21684L11.9785 5.09566L12.0633 4.99872L12.0754 4.96237H12.0996L12.1845 4.86543L12.3783 4.68367L12.5722 4.44133L12.5843 4.39286L12.5722 4.38074L12.0027 4.36862H3.10856Z" stroke="#1C3A6A" stroke-width="0.02" mask="url(#path-1-outside-1_3050_3675)"/>
<mask id="path-2-outside-2_3050_3675" maskUnits="userSpaceOnUse" x="0" y="10.3242" width="18" height="10" fill="black">
<rect fill="white" y="10.3242" width="18" height="10"/>
<path d="M16.2557 11.3242H16.3769L16.6193 11.3485L16.7889 11.3969L16.9101 11.4575L17.1161 11.615L17.2494 11.7362L17.3221 11.8453L17.4675 12.1482L17.5281 12.3784L17.5402 12.4754V12.6329L17.5038 12.8389L17.4311 13.0328L17.3342 13.2266L17.2251 13.3721L17.1161 13.4932L13.8323 16.777L13.699 16.8861L13.5293 17.0194L13.396 17.1163L13.1537 17.2375L12.9598 17.3465L12.7296 17.4435L12.5721 17.4919L12.2328 17.5525L11.942 17.5889L11.7966 17.601L8.17347 17.6131L7.71301 17.6252L7.59184 17.6495L7.44643 17.7222L7.33737 17.8191L7.2889 17.8797L7.15561 17.9888L7.04656 18.1099L7.02232 18.1463L7.03444 18.2069L7.15561 18.328L7.25255 18.4129L7.37372 18.5462L7.45855 18.6431L7.65242 18.8006L7.71301 18.8976L7.72513 18.9581V19.0672L7.68878 19.1641L7.61607 19.2611L7.53125 19.3459L7.43431 19.4307L7.34949 19.5034L7.26467 19.6004L7.0102 19.8548L6.91327 19.9397L6.85268 19.9881L6.80421 20.0002H6.64668L6.57398 19.9639L6.47704 19.8548L6.45281 19.7821L6.46492 19.661L6.51339 19.564L6.62245 19.4428L6.96173 19.1036H6.98597L6.99809 19.0672V18.9824L6.90115 18.8491L6.79209 18.74L6.6588 18.631L6.51339 18.4735V18.4492L6.47704 18.4371L6.41645 18.3765L6.22258 18.1948L6.11352 18.0736L5.95599 17.9161L5.87117 17.8434L5.78635 17.7464L5.35013 17.3102V17.286L5.31378 17.2738L5.16837 17.1284L5.09566 17.0678L5.01084 16.9709L4.40497 16.365L4.30804 16.2802L4.22321 16.1833L4.02934 15.9894L3.9324 15.9046L3.78699 15.7471L3.61735 15.5774L3.54464 15.5168L3.45982 15.4199L3.39923 15.3593L3.32653 15.3714L3.18112 15.5168L3.08418 15.6016L2.82972 15.8561L2.7449 15.953L2.66008 16.0379H2.63584V16.0621L2.55102 16.1348L2.51467 16.1833H2.49043V16.2075L2.30867 16.3893L2.21173 16.4741L1.99362 16.6922L1.9088 16.7891L1.72704 16.9709H1.70281L1.67857 17.0194L1.52105 17.1769L1.39987 17.2617L1.37564 17.2738H1.20599L1.12117 17.2254L1.02423 17.1284L1 17.0678V16.9709L1.04847 16.8497L1.20599 16.7043L1.29082 16.5953L1.44834 16.4377L1.56952 16.3408L1.69069 16.1954H1.71492V16.1712L1.81186 16.0863L1.9088 15.9894L1.98151 15.9288L2.06633 15.8319L2.13903 15.7471L2.23597 15.6622L2.36926 15.5411L2.45408 15.432L2.59949 15.2866L2.72066 15.1897L2.86607 15.02L3.03571 14.8504L3.13265 14.7655L3.19324 14.705L3.29018 14.6565L3.39923 14.6444L3.49617 14.6807L3.64158 14.814L3.76276 14.911L3.89605 15.0564L3.98087 15.1533L4.08992 15.2502L4.22321 15.3472H4.25957V15.3229L4.35651 15.2381L4.47768 15.1291L4.62309 14.9837L4.70791 14.8867L4.8412 14.7534L4.9139 14.6928L4.97449 14.6323L5.1199 14.4747L5.24107 14.3657L5.33801 14.2809L5.4713 14.1597L5.62883 14.0506L5.79847 13.9416L5.91964 13.8567L6.13775 13.7356L6.29528 13.6629L6.53763 13.5659L6.70727 13.4932L7.05867 13.3842L7.34949 13.3236L7.67666 13.2872L8.24617 13.2751H12.3661L12.9114 13.2872L13.0689 13.3115L13.2143 13.3721L13.396 13.4811L13.493 13.5538L13.6869 13.3721L13.8565 13.2145L13.9413 13.1176L14.0504 12.9964L14.2079 12.851L14.2685 12.7904L14.3412 12.7056L14.426 12.6329L14.4866 12.5602L14.6078 12.4632L14.7168 12.33L14.8622 12.1846L14.9955 12.0755L15.1409 11.918L15.3106 11.7483L15.4075 11.6635L15.5408 11.5423L15.6983 11.4454L15.8316 11.3848L16.0013 11.3485L16.2557 11.3242ZM16.1952 11.8453L16.0134 11.8937L15.868 11.9786L15.7226 12.1118L15.6256 12.2088L15.6014 12.2209V12.2451L15.5529 12.2694V12.2936H15.5287L15.4439 12.3905L13.8686 13.9658L13.808 14.0627L13.8202 14.1718V14.5111L13.7838 14.6928L13.699 14.8625L13.6142 14.9837L13.4809 15.1412L13.396 15.2139L13.2628 15.2987L13.1173 15.3714L12.9235 15.432L12.8265 15.4441H10.706L10.5848 15.3835L10.5242 15.3108L10.4879 15.2139L10.5 15.0927L10.5485 14.9958L10.6333 14.9231L10.6939 14.8988L12.7417 14.8867L12.9114 14.8625L13.0689 14.814L13.1416 14.7292L13.2143 14.608L13.2628 14.4505V14.2809L13.2264 14.1476L13.1658 14.0264L13.081 13.9294L12.9356 13.8567L12.8386 13.8325L12.7175 13.8204H8.17347L7.82207 13.8325L7.50702 13.8689L7.26467 13.9173L6.76786 14.0506L6.5861 14.1233L6.3074 14.2809L6.07717 14.4141L5.93176 14.5111L5.81059 14.608L5.68941 14.7171L5.51977 14.8504L5.43495 14.9352L5.35013 15.0321L5.31378 15.0685V15.0927L5.26531 15.1169V15.1412L5.21684 15.1654L5.08355 15.2866L4.99872 15.3835L4.92602 15.4684L4.82908 15.5532L4.69579 15.6622L4.64732 15.7471V15.8198L4.73214 15.9167L4.88967 16.0621H4.9139V16.0863L4.98661 16.1469L5.09566 16.2802L5.25319 16.4256L5.35013 16.5104L5.49554 16.6801L5.58036 16.7649L5.71365 16.874L5.83482 17.0073L5.91964 17.1042L6.06505 17.2254L6.14987 17.3223L6.28316 17.4677L6.42857 17.601L6.52551 17.6858L6.5861 17.7464L6.63457 17.7222L6.75574 17.6131L6.88903 17.5041L7.0102 17.3708L7.07079 17.3102L7.15561 17.2375L7.2889 17.1769L7.48278 17.1163L7.68878 17.08L11.4694 17.0678L11.8935 17.0557L12.1843 17.0073L12.4145 16.9467L12.6569 16.8618L12.9719 16.7286L13.1052 16.6437L13.2264 16.5468L13.4203 16.4014L13.5172 16.3166L14.3897 15.4441L14.4503 15.3714L14.5472 15.2866L14.632 15.2139L14.7411 15.0806L14.8622 14.9594L14.9592 14.8746L15.0925 14.7413L15.1773 14.6444L15.2985 14.5232L15.4196 14.4263L15.5287 14.293L15.7105 14.1112L15.8074 14.0264L15.9407 13.881L16.0861 13.7356L16.1103 13.7235V13.6992L16.1588 13.675L16.3284 13.4932L16.486 13.3357L16.5829 13.2509L16.6677 13.1661L16.7283 13.0934L16.7889 13.0328L16.898 12.9116L16.9464 12.8147L16.9707 12.7177L16.9828 12.5238L16.9707 12.3663L16.9343 12.2451L16.8616 12.1361L16.7647 12.0391L16.6314 11.9422L16.486 11.8695L16.3769 11.8453H16.1952Z"/>
</mask>
<path d="M16.2557 11.3242H16.3769L16.6193 11.3485L16.7889 11.3969L16.9101 11.4575L17.1161 11.615L17.2494 11.7362L17.3221 11.8453L17.4675 12.1482L17.5281 12.3784L17.5402 12.4754V12.6329L17.5038 12.8389L17.4311 13.0328L17.3342 13.2266L17.2251 13.3721L17.1161 13.4932L13.8323 16.777L13.699 16.8861L13.5293 17.0194L13.396 17.1163L13.1537 17.2375L12.9598 17.3465L12.7296 17.4435L12.5721 17.4919L12.2328 17.5525L11.942 17.5889L11.7966 17.601L8.17347 17.6131L7.71301 17.6252L7.59184 17.6495L7.44643 17.7222L7.33737 17.8191L7.2889 17.8797L7.15561 17.9888L7.04656 18.1099L7.02232 18.1463L7.03444 18.2069L7.15561 18.328L7.25255 18.4129L7.37372 18.5462L7.45855 18.6431L7.65242 18.8006L7.71301 18.8976L7.72513 18.9581V19.0672L7.68878 19.1641L7.61607 19.2611L7.53125 19.3459L7.43431 19.4307L7.34949 19.5034L7.26467 19.6004L7.0102 19.8548L6.91327 19.9397L6.85268 19.9881L6.80421 20.0002H6.64668L6.57398 19.9639L6.47704 19.8548L6.45281 19.7821L6.46492 19.661L6.51339 19.564L6.62245 19.4428L6.96173 19.1036H6.98597L6.99809 19.0672V18.9824L6.90115 18.8491L6.79209 18.74L6.6588 18.631L6.51339 18.4735V18.4492L6.47704 18.4371L6.41645 18.3765L6.22258 18.1948L6.11352 18.0736L5.95599 17.9161L5.87117 17.8434L5.78635 17.7464L5.35013 17.3102V17.286L5.31378 17.2738L5.16837 17.1284L5.09566 17.0678L5.01084 16.9709L4.40497 16.365L4.30804 16.2802L4.22321 16.1833L4.02934 15.9894L3.9324 15.9046L3.78699 15.7471L3.61735 15.5774L3.54464 15.5168L3.45982 15.4199L3.39923 15.3593L3.32653 15.3714L3.18112 15.5168L3.08418 15.6016L2.82972 15.8561L2.7449 15.953L2.66008 16.0379H2.63584V16.0621L2.55102 16.1348L2.51467 16.1833H2.49043V16.2075L2.30867 16.3893L2.21173 16.4741L1.99362 16.6922L1.9088 16.7891L1.72704 16.9709H1.70281L1.67857 17.0194L1.52105 17.1769L1.39987 17.2617L1.37564 17.2738H1.20599L1.12117 17.2254L1.02423 17.1284L1 17.0678V16.9709L1.04847 16.8497L1.20599 16.7043L1.29082 16.5953L1.44834 16.4377L1.56952 16.3408L1.69069 16.1954H1.71492V16.1712L1.81186 16.0863L1.9088 15.9894L1.98151 15.9288L2.06633 15.8319L2.13903 15.7471L2.23597 15.6622L2.36926 15.5411L2.45408 15.432L2.59949 15.2866L2.72066 15.1897L2.86607 15.02L3.03571 14.8504L3.13265 14.7655L3.19324 14.705L3.29018 14.6565L3.39923 14.6444L3.49617 14.6807L3.64158 14.814L3.76276 14.911L3.89605 15.0564L3.98087 15.1533L4.08992 15.2502L4.22321 15.3472H4.25957V15.3229L4.35651 15.2381L4.47768 15.1291L4.62309 14.9837L4.70791 14.8867L4.8412 14.7534L4.9139 14.6928L4.97449 14.6323L5.1199 14.4747L5.24107 14.3657L5.33801 14.2809L5.4713 14.1597L5.62883 14.0506L5.79847 13.9416L5.91964 13.8567L6.13775 13.7356L6.29528 13.6629L6.53763 13.5659L6.70727 13.4932L7.05867 13.3842L7.34949 13.3236L7.67666 13.2872L8.24617 13.2751H12.3661L12.9114 13.2872L13.0689 13.3115L13.2143 13.3721L13.396 13.4811L13.493 13.5538L13.6869 13.3721L13.8565 13.2145L13.9413 13.1176L14.0504 12.9964L14.2079 12.851L14.2685 12.7904L14.3412 12.7056L14.426 12.6329L14.4866 12.5602L14.6078 12.4632L14.7168 12.33L14.8622 12.1846L14.9955 12.0755L15.1409 11.918L15.3106 11.7483L15.4075 11.6635L15.5408 11.5423L15.6983 11.4454L15.8316 11.3848L16.0013 11.3485L16.2557 11.3242ZM16.1952 11.8453L16.0134 11.8937L15.868 11.9786L15.7226 12.1118L15.6256 12.2088L15.6014 12.2209V12.2451L15.5529 12.2694V12.2936H15.5287L15.4439 12.3905L13.8686 13.9658L13.808 14.0627L13.8202 14.1718V14.5111L13.7838 14.6928L13.699 14.8625L13.6142 14.9837L13.4809 15.1412L13.396 15.2139L13.2628 15.2987L13.1173 15.3714L12.9235 15.432L12.8265 15.4441H10.706L10.5848 15.3835L10.5242 15.3108L10.4879 15.2139L10.5 15.0927L10.5485 14.9958L10.6333 14.9231L10.6939 14.8988L12.7417 14.8867L12.9114 14.8625L13.0689 14.814L13.1416 14.7292L13.2143 14.608L13.2628 14.4505V14.2809L13.2264 14.1476L13.1658 14.0264L13.081 13.9294L12.9356 13.8567L12.8386 13.8325L12.7175 13.8204H8.17347L7.82207 13.8325L7.50702 13.8689L7.26467 13.9173L6.76786 14.0506L6.5861 14.1233L6.3074 14.2809L6.07717 14.4141L5.93176 14.5111L5.81059 14.608L5.68941 14.7171L5.51977 14.8504L5.43495 14.9352L5.35013 15.0321L5.31378 15.0685V15.0927L5.26531 15.1169V15.1412L5.21684 15.1654L5.08355 15.2866L4.99872 15.3835L4.92602 15.4684L4.82908 15.5532L4.69579 15.6622L4.64732 15.7471V15.8198L4.73214 15.9167L4.88967 16.0621H4.9139V16.0863L4.98661 16.1469L5.09566 16.2802L5.25319 16.4256L5.35013 16.5104L5.49554 16.6801L5.58036 16.7649L5.71365 16.874L5.83482 17.0073L5.91964 17.1042L6.06505 17.2254L6.14987 17.3223L6.28316 17.4677L6.42857 17.601L6.52551 17.6858L6.5861 17.7464L6.63457 17.7222L6.75574 17.6131L6.88903 17.5041L7.0102 17.3708L7.07079 17.3102L7.15561 17.2375L7.2889 17.1769L7.48278 17.1163L7.68878 17.08L11.4694 17.0678L11.8935 17.0557L12.1843 17.0073L12.4145 16.9467L12.6569 16.8618L12.9719 16.7286L13.1052 16.6437L13.2264 16.5468L13.4203 16.4014L13.5172 16.3166L14.3897 15.4441L14.4503 15.3714L14.5472 15.2866L14.632 15.2139L14.7411 15.0806L14.8622 14.9594L14.9592 14.8746L15.0925 14.7413L15.1773 14.6444L15.2985 14.5232L15.4196 14.4263L15.5287 14.293L15.7105 14.1112L15.8074 14.0264L15.9407 13.881L16.0861 13.7356L16.1103 13.7235V13.6992L16.1588 13.675L16.3284 13.4932L16.486 13.3357L16.5829 13.2509L16.6677 13.1661L16.7283 13.0934L16.7889 13.0328L16.898 12.9116L16.9464 12.8147L16.9707 12.7177L16.9828 12.5238L16.9707 12.3663L16.9343 12.2451L16.8616 12.1361L16.7647 12.0391L16.6314 11.9422L16.486 11.8695L16.3769 11.8453H16.1952Z" fill="#1C3A6A"/>
<path d="M16.2557 11.3242H16.3769L16.6193 11.3485L16.7889 11.3969L16.9101 11.4575L17.1161 11.615L17.2494 11.7362L17.3221 11.8453L17.4675 12.1482L17.5281 12.3784L17.5402 12.4754V12.6329L17.5038 12.8389L17.4311 13.0328L17.3342 13.2266L17.2251 13.3721L17.1161 13.4932L13.8323 16.777L13.699 16.8861L13.5293 17.0194L13.396 17.1163L13.1537 17.2375L12.9598 17.3465L12.7296 17.4435L12.5721 17.4919L12.2328 17.5525L11.942 17.5889L11.7966 17.601L8.17347 17.6131L7.71301 17.6252L7.59184 17.6495L7.44643 17.7222L7.33737 17.8191L7.2889 17.8797L7.15561 17.9888L7.04656 18.1099L7.02232 18.1463L7.03444 18.2069L7.15561 18.328L7.25255 18.4129L7.37372 18.5462L7.45855 18.6431L7.65242 18.8006L7.71301 18.8976L7.72513 18.9581V19.0672L7.68878 19.1641L7.61607 19.2611L7.53125 19.3459L7.43431 19.4307L7.34949 19.5034L7.26467 19.6004L7.0102 19.8548L6.91327 19.9397L6.85268 19.9881L6.80421 20.0002H6.64668L6.57398 19.9639L6.47704 19.8548L6.45281 19.7821L6.46492 19.661L6.51339 19.564L6.62245 19.4428L6.96173 19.1036H6.98597L6.99809 19.0672V18.9824L6.90115 18.8491L6.79209 18.74L6.6588 18.631L6.51339 18.4735V18.4492L6.47704 18.4371L6.41645 18.3765L6.22258 18.1948L6.11352 18.0736L5.95599 17.9161L5.87117 17.8434L5.78635 17.7464L5.35013 17.3102V17.286L5.31378 17.2738L5.16837 17.1284L5.09566 17.0678L5.01084 16.9709L4.40497 16.365L4.30804 16.2802L4.22321 16.1833L4.02934 15.9894L3.9324 15.9046L3.78699 15.7471L3.61735 15.5774L3.54464 15.5168L3.45982 15.4199L3.39923 15.3593L3.32653 15.3714L3.18112 15.5168L3.08418 15.6016L2.82972 15.8561L2.7449 15.953L2.66008 16.0379H2.63584V16.0621L2.55102 16.1348L2.51467 16.1833H2.49043V16.2075L2.30867 16.3893L2.21173 16.4741L1.99362 16.6922L1.9088 16.7891L1.72704 16.9709H1.70281L1.67857 17.0194L1.52105 17.1769L1.39987 17.2617L1.37564 17.2738H1.20599L1.12117 17.2254L1.02423 17.1284L1 17.0678V16.9709L1.04847 16.8497L1.20599 16.7043L1.29082 16.5953L1.44834 16.4377L1.56952 16.3408L1.69069 16.1954H1.71492V16.1712L1.81186 16.0863L1.9088 15.9894L1.98151 15.9288L2.06633 15.8319L2.13903 15.7471L2.23597 15.6622L2.36926 15.5411L2.45408 15.432L2.59949 15.2866L2.72066 15.1897L2.86607 15.02L3.03571 14.8504L3.13265 14.7655L3.19324 14.705L3.29018 14.6565L3.39923 14.6444L3.49617 14.6807L3.64158 14.814L3.76276 14.911L3.89605 15.0564L3.98087 15.1533L4.08992 15.2502L4.22321 15.3472H4.25957V15.3229L4.35651 15.2381L4.47768 15.1291L4.62309 14.9837L4.70791 14.8867L4.8412 14.7534L4.9139 14.6928L4.97449 14.6323L5.1199 14.4747L5.24107 14.3657L5.33801 14.2809L5.4713 14.1597L5.62883 14.0506L5.79847 13.9416L5.91964 13.8567L6.13775 13.7356L6.29528 13.6629L6.53763 13.5659L6.70727 13.4932L7.05867 13.3842L7.34949 13.3236L7.67666 13.2872L8.24617 13.2751H12.3661L12.9114 13.2872L13.0689 13.3115L13.2143 13.3721L13.396 13.4811L13.493 13.5538L13.6869 13.3721L13.8565 13.2145L13.9413 13.1176L14.0504 12.9964L14.2079 12.851L14.2685 12.7904L14.3412 12.7056L14.426 12.6329L14.4866 12.5602L14.6078 12.4632L14.7168 12.33L14.8622 12.1846L14.9955 12.0755L15.1409 11.918L15.3106 11.7483L15.4075 11.6635L15.5408 11.5423L15.6983 11.4454L15.8316 11.3848L16.0013 11.3485L16.2557 11.3242ZM16.1952 11.8453L16.0134 11.8937L15.868 11.9786L15.7226 12.1118L15.6256 12.2088L15.6014 12.2209V12.2451L15.5529 12.2694V12.2936H15.5287L15.4439 12.3905L13.8686 13.9658L13.808 14.0627L13.8202 14.1718V14.5111L13.7838 14.6928L13.699 14.8625L13.6142 14.9837L13.4809 15.1412L13.396 15.2139L13.2628 15.2987L13.1173 15.3714L12.9235 15.432L12.8265 15.4441H10.706L10.5848 15.3835L10.5242 15.3108L10.4879 15.2139L10.5 15.0927L10.5485 14.9958L10.6333 14.9231L10.6939 14.8988L12.7417 14.8867L12.9114 14.8625L13.0689 14.814L13.1416 14.7292L13.2143 14.608L13.2628 14.4505V14.2809L13.2264 14.1476L13.1658 14.0264L13.081 13.9294L12.9356 13.8567L12.8386 13.8325L12.7175 13.8204H8.17347L7.82207 13.8325L7.50702 13.8689L7.26467 13.9173L6.76786 14.0506L6.5861 14.1233L6.3074 14.2809L6.07717 14.4141L5.93176 14.5111L5.81059 14.608L5.68941 14.7171L5.51977 14.8504L5.43495 14.9352L5.35013 15.0321L5.31378 15.0685V15.0927L5.26531 15.1169V15.1412L5.21684 15.1654L5.08355 15.2866L4.99872 15.3835L4.92602 15.4684L4.82908 15.5532L4.69579 15.6622L4.64732 15.7471V15.8198L4.73214 15.9167L4.88967 16.0621H4.9139V16.0863L4.98661 16.1469L5.09566 16.2802L5.25319 16.4256L5.35013 16.5104L5.49554 16.6801L5.58036 16.7649L5.71365 16.874L5.83482 17.0073L5.91964 17.1042L6.06505 17.2254L6.14987 17.3223L6.28316 17.4677L6.42857 17.601L6.52551 17.6858L6.5861 17.7464L6.63457 17.7222L6.75574 17.6131L6.88903 17.5041L7.0102 17.3708L7.07079 17.3102L7.15561 17.2375L7.2889 17.1769L7.48278 17.1163L7.68878 17.08L11.4694 17.0678L11.8935 17.0557L12.1843 17.0073L12.4145 16.9467L12.6569 16.8618L12.9719 16.7286L13.1052 16.6437L13.2264 16.5468L13.4203 16.4014L13.5172 16.3166L14.3897 15.4441L14.4503 15.3714L14.5472 15.2866L14.632 15.2139L14.7411 15.0806L14.8622 14.9594L14.9592 14.8746L15.0925 14.7413L15.1773 14.6444L15.2985 14.5232L15.4196 14.4263L15.5287 14.293L15.7105 14.1112L15.8074 14.0264L15.9407 13.881L16.0861 13.7356L16.1103 13.7235V13.6992L16.1588 13.675L16.3284 13.4932L16.486 13.3357L16.5829 13.2509L16.6677 13.1661L16.7283 13.0934L16.7889 13.0328L16.898 12.9116L16.9464 12.8147L16.9707 12.7177L16.9828 12.5238L16.9707 12.3663L16.9343 12.2451L16.8616 12.1361L16.7647 12.0391L16.6314 11.9422L16.486 11.8695L16.3769 11.8453H16.1952Z" stroke="#1C3A6A" stroke-width="0.02" mask="url(#path-2-outside-2_3050_3675)"/>
<mask id="path-3-outside-3_3050_3675" maskUnits="userSpaceOnUse" x="6.65234" y="4.39844" width="4" height="6" fill="black">
<rect fill="white" x="6.65234" y="4.39844" width="4" height="6"/>
<path d="M8.83984 5.39844L8.9489 5.41055L8.96102 5.42267L8.97313 5.60443L9.13066 5.6529L9.31242 5.71349L9.46995 5.79831L9.579 5.88313L9.67594 5.98007L9.785 6.14971L9.8577 6.31936L9.86982 6.40418L9.82135 6.42841L9.49418 6.47688L9.32454 6.489L9.28819 6.45265L9.23972 6.33147L9.14278 6.22242L9.07007 6.17395L8.96102 6.14971V7.07063L9.05796 7.10698L9.34877 7.20392L9.54265 7.30086L9.63959 7.37357L9.82135 7.54321L9.90617 7.68862L9.96676 7.87038L9.99099 8.08849L9.97887 8.29448L9.91829 8.5126L9.83347 8.658L9.70018 8.81553L9.61535 8.91247L9.51842 8.98517L9.27607 9.08211L8.99737 9.16693L8.97313 9.17905L8.96102 9.40928L8.9489 9.43351H8.6702L8.64597 9.37293L8.63385 9.20328L8.52479 9.15481L8.3188 9.09423L8.08857 8.98517L7.96739 8.88823L7.85834 8.75494L7.77352 8.62165L7.70081 8.40354L7.65234 8.2339V8.19754L7.77352 8.17331L8.1128 8.13696H8.22186L8.34303 8.36719L8.45209 8.5126L8.53691 8.60953L8.64597 8.63377V7.62803L8.52479 7.56744L8.19762 7.43415L8.06433 7.3251L7.93104 7.1918L7.82199 7.03428L7.77352 6.91311L7.74928 6.79193L7.73717 6.53747L7.7614 6.30724L7.80987 6.16183L7.88257 6.04066L7.96739 5.94372L8.08857 5.84678L8.24609 5.73772L8.40362 5.67714L8.63385 5.60443L8.65808 5.42267L8.6702 5.41055L8.83984 5.39844ZM8.58538 6.12548L8.51268 6.17395L8.36727 6.30724L8.3188 6.40418L8.29456 6.50112V6.59805L8.33092 6.71923L8.43997 6.86464L8.56114 6.96158L8.63385 6.97369L8.64597 6.96158L8.65808 6.58594V6.2103L8.63385 6.12548H8.58538ZM8.97313 7.72497L8.96102 7.73709L8.9489 7.82191V8.63377L8.96102 8.67012H9.07007L9.19125 8.63377L9.28819 8.54895L9.38512 8.3793L9.40936 8.29448V8.06425L9.36089 7.9552L9.28819 7.85826L9.17913 7.78555L9.07007 7.73709L8.97313 7.72497Z"/>
</mask>
<path d="M8.83984 5.39844L8.9489 5.41055L8.96102 5.42267L8.97313 5.60443L9.13066 5.6529L9.31242 5.71349L9.46995 5.79831L9.579 5.88313L9.67594 5.98007L9.785 6.14971L9.8577 6.31936L9.86982 6.40418L9.82135 6.42841L9.49418 6.47688L9.32454 6.489L9.28819 6.45265L9.23972 6.33147L9.14278 6.22242L9.07007 6.17395L8.96102 6.14971V7.07063L9.05796 7.10698L9.34877 7.20392L9.54265 7.30086L9.63959 7.37357L9.82135 7.54321L9.90617 7.68862L9.96676 7.87038L9.99099 8.08849L9.97887 8.29448L9.91829 8.5126L9.83347 8.658L9.70018 8.81553L9.61535 8.91247L9.51842 8.98517L9.27607 9.08211L8.99737 9.16693L8.97313 9.17905L8.96102 9.40928L8.9489 9.43351H8.6702L8.64597 9.37293L8.63385 9.20328L8.52479 9.15481L8.3188 9.09423L8.08857 8.98517L7.96739 8.88823L7.85834 8.75494L7.77352 8.62165L7.70081 8.40354L7.65234 8.2339V8.19754L7.77352 8.17331L8.1128 8.13696H8.22186L8.34303 8.36719L8.45209 8.5126L8.53691 8.60953L8.64597 8.63377V7.62803L8.52479 7.56744L8.19762 7.43415L8.06433 7.3251L7.93104 7.1918L7.82199 7.03428L7.77352 6.91311L7.74928 6.79193L7.73717 6.53747L7.7614 6.30724L7.80987 6.16183L7.88257 6.04066L7.96739 5.94372L8.08857 5.84678L8.24609 5.73772L8.40362 5.67714L8.63385 5.60443L8.65808 5.42267L8.6702 5.41055L8.83984 5.39844ZM8.58538 6.12548L8.51268 6.17395L8.36727 6.30724L8.3188 6.40418L8.29456 6.50112V6.59805L8.33092 6.71923L8.43997 6.86464L8.56114 6.96158L8.63385 6.97369L8.64597 6.96158L8.65808 6.58594V6.2103L8.63385 6.12548H8.58538ZM8.97313 7.72497L8.96102 7.73709L8.9489 7.82191V8.63377L8.96102 8.67012H9.07007L9.19125 8.63377L9.28819 8.54895L9.38512 8.3793L9.40936 8.29448V8.06425L9.36089 7.9552L9.28819 7.85826L9.17913 7.78555L9.07007 7.73709L8.97313 7.72497Z" fill="#1C3A6A"/>
<path d="M8.83984 5.39844L8.9489 5.41055L8.96102 5.42267L8.97313 5.60443L9.13066 5.6529L9.31242 5.71349L9.46995 5.79831L9.579 5.88313L9.67594 5.98007L9.785 6.14971L9.8577 6.31936L9.86982 6.40418L9.82135 6.42841L9.49418 6.47688L9.32454 6.489L9.28819 6.45265L9.23972 6.33147L9.14278 6.22242L9.07007 6.17395L8.96102 6.14971V7.07063L9.05796 7.10698L9.34877 7.20392L9.54265 7.30086L9.63959 7.37357L9.82135 7.54321L9.90617 7.68862L9.96676 7.87038L9.99099 8.08849L9.97887 8.29448L9.91829 8.5126L9.83347 8.658L9.70018 8.81553L9.61535 8.91247L9.51842 8.98517L9.27607 9.08211L8.99737 9.16693L8.97313 9.17905L8.96102 9.40928L8.9489 9.43351H8.6702L8.64597 9.37293L8.63385 9.20328L8.52479 9.15481L8.3188 9.09423L8.08857 8.98517L7.96739 8.88823L7.85834 8.75494L7.77352 8.62165L7.70081 8.40354L7.65234 8.2339V8.19754L7.77352 8.17331L8.1128 8.13696H8.22186L8.34303 8.36719L8.45209 8.5126L8.53691 8.60953L8.64597 8.63377V7.62803L8.52479 7.56744L8.19762 7.43415L8.06433 7.3251L7.93104 7.1918L7.82199 7.03428L7.77352 6.91311L7.74928 6.79193L7.73717 6.53747L7.7614 6.30724L7.80987 6.16183L7.88257 6.04066L7.96739 5.94372L8.08857 5.84678L8.24609 5.73772L8.40362 5.67714L8.63385 5.60443L8.65808 5.42267L8.6702 5.41055L8.83984 5.39844ZM8.58538 6.12548L8.51268 6.17395L8.36727 6.30724L8.3188 6.40418L8.29456 6.50112V6.59805L8.33092 6.71923L8.43997 6.86464L8.56114 6.96158L8.63385 6.97369L8.64597 6.96158L8.65808 6.58594V6.2103L8.63385 6.12548H8.58538ZM8.97313 7.72497L8.96102 7.73709L8.9489 7.82191V8.63377L8.96102 8.67012H9.07007L9.19125 8.63377L9.28819 8.54895L9.38512 8.3793L9.40936 8.29448V8.06425L9.36089 7.9552L9.28819 7.85826L9.17913 7.78555L9.07007 7.73709L8.97313 7.72497Z" stroke="#1C3A6A" stroke-width="0.02" mask="url(#path-3-outside-3_3050_3675)"/>
<path d="M6.30809 7.11417L6.30814 7.11376L6.30616 7.11435L6.18499 7.1507L6.18485 7.15025L6.18317 7.1517L6.09835 7.2244L6.09807 7.22408L6.09713 7.22596L6.03654 7.34713L6.03602 7.34687V7.34937V7.49478H6.03563L6.03637 7.49664L6.06061 7.55722L6.06042 7.5573L6.0613 7.55843L6.14612 7.66749L6.14587 7.66769L6.14742 7.66866L6.24436 7.72925L6.24389 7.73001H6.24701H6.39242V7.73016L6.39363 7.72986L6.4421 7.71774L6.44216 7.71796L6.44346 7.71718L6.50405 7.68083L6.50425 7.68117L6.50547 7.67954L6.57818 7.5826L6.5784 7.58276L6.57892 7.58118L6.61527 7.47212L6.61553 7.47221V7.47054V7.3736H6.61585L6.61523 7.3719L6.56676 7.23861L6.56706 7.2385L6.5659 7.23711L6.50532 7.16441L6.50567 7.16412L6.50371 7.16314L6.43101 7.12679L6.43116 7.12647L6.42927 7.12628L6.30809 7.11417Z" fill="#1C3A6A" stroke="#1C3A6A" stroke-width="0.01"/>
<path d="M11.2152 7.12586V7.12547L11.2133 7.12622L11.1527 7.15045L11.1526 7.15017L11.1513 7.15133L11.0544 7.23615L11.0541 7.23585L11.0532 7.23768L10.9926 7.35885L10.9921 7.35859V7.36109V7.48226H10.9916L10.9925 7.48429L11.041 7.59335L11.0406 7.59349L11.042 7.59485L11.1268 7.67968L11.1266 7.67987L11.1281 7.68061L11.2251 7.72908L11.2248 7.72961H11.2273H11.3727V7.73033L11.3751 7.72898L11.4842 7.66839L11.4845 7.66894L11.4859 7.6668L11.5586 7.55774L11.5589 7.55794L11.5593 7.55605L11.5836 7.447L11.5839 7.44706L11.5837 7.44536L11.5716 7.3363L11.5717 7.33629L11.5713 7.33527L11.5471 7.26257L11.5475 7.26244L11.5461 7.2609L11.4734 7.17607L11.4739 7.17573L11.4717 7.17476L11.3626 7.12629L11.3628 7.12586H11.3606H11.2152Z" fill="#1C3A6A" stroke="#1C3A6A" stroke-width="0.01"/>
</svg>
