<svg width="14" height="17" viewBox="0 0 14 17" fill="none" xmlns="http://www.w3.org/2000/svg">
<path d="M1.39453 6.625V2.77632C1.39453 1.79528 2.18981 1 3.17085 1H9.10739C9.46903 1 9.81626 1.14179 10.0745 1.39495L11.8651 3.15011L12.4717 3.80198C12.7096 4.05765 12.8419 4.39393 12.8419 4.74317V14.2237C12.8419 15.2047 12.0466 16 11.0656 16H3.17085C2.18981 16 1.39453 15.2047 1.39453 14.2237V13.6316" stroke="#4FC9F3" stroke-linecap="round"/>
<path d="M9.48633 1.19739V3.96055C9.48633 4.28756 9.75141 4.55265 10.0784 4.55265H12.8416" stroke="#4FC9F3"/>
<mask id="path-3-inside-1_3360_2407" fill="white">
<path d="M1 11.5711V8.81584C1 8.78689 1.00789 8.76583 1.02368 8.75269C1.03947 8.7369 1.05921 8.729 1.08289 8.729H2.35C2.48421 8.729 2.60658 8.75664 2.71711 8.8119C2.83026 8.86716 2.92632 8.93952 3.00526 9.029C3.08684 9.11847 3.14999 9.2211 3.19474 9.3369C3.23948 9.45005 3.26184 9.56715 3.26184 9.68821C3.26184 9.80664 3.23948 9.92241 3.19474 10.0356C3.15264 10.1487 3.09211 10.25 3.01316 10.3395C2.93421 10.429 2.83947 10.5014 2.72895 10.5566C2.61842 10.6093 2.49605 10.6356 2.36184 10.6356H1.75789V11.5711C1.75789 11.629 1.72764 11.658 1.66711 11.658H1.08289C1.02763 11.658 1 11.629 1 11.5711ZM2.18421 9.35269H1.75789V10.0119H2.18421C2.28157 10.0119 2.35657 9.979 2.40921 9.91321C2.46185 9.84479 2.48816 9.76846 2.48816 9.68427C2.48816 9.64479 2.48026 9.60532 2.46447 9.56585C2.45131 9.52637 2.43157 9.49085 2.40526 9.45927C2.38158 9.42769 2.35 9.40268 2.31053 9.38427C2.27368 9.36321 2.23158 9.35269 2.18421 9.35269ZM3.68693 11.5711V8.81584C3.68693 8.75794 3.71457 8.729 3.76983 8.729H4.79612C4.98035 8.729 5.1593 8.76715 5.33299 8.84348C5.5093 8.91978 5.66587 9.02373 5.8027 9.15532C5.93956 9.28688 6.04876 9.44215 6.13035 9.62111C6.21455 9.80004 6.25667 9.99084 6.25667 10.1935C6.25667 10.3856 6.2185 10.5698 6.1422 10.7461C6.06587 10.9224 5.96192 11.079 5.83034 11.2158C5.69877 11.3501 5.5435 11.4579 5.36457 11.5395C5.18824 11.6185 4.99876 11.658 4.79612 11.658H3.76983C3.71457 11.658 3.68693 11.629 3.68693 11.5711ZM5.49086 10.1935C5.49086 10.0882 5.47114 9.98952 5.43167 9.89742C5.39482 9.80269 5.34218 9.7211 5.27378 9.65269C5.20535 9.58426 5.12376 9.53032 5.02902 9.49085C4.93693 9.44873 4.83562 9.42769 4.72509 9.42769H4.44878V10.9593H4.72509C4.83562 10.9593 4.93693 10.9395 5.02902 10.9001C5.12376 10.8579 5.20535 10.8027 5.27378 10.7343C5.34218 10.6658 5.39482 10.5856 5.43167 10.4935C5.47114 10.3987 5.49086 10.2987 5.49086 10.1935ZM6.71701 11.5711V8.81584C6.71701 8.75794 6.74464 8.729 6.79991 8.729H8.68282C8.73806 8.729 8.76572 8.75794 8.76572 8.81584V9.32111C8.76572 9.379 8.73806 9.40795 8.68282 9.40795H7.47887V10.0158H8.35914C8.41703 10.0158 8.44596 10.0461 8.44596 10.1066V10.5843C8.44596 10.6422 8.41703 10.6711 8.35914 10.6711H7.47887V11.5711C7.47887 11.629 7.44992 11.658 7.39201 11.658H6.79991C6.74464 11.658 6.71701 11.629 6.71701 11.5711Z"/>
</mask>
<path d="M1 11.5711V8.81584C1 8.78689 1.00789 8.76583 1.02368 8.75269C1.03947 8.7369 1.05921 8.729 1.08289 8.729H2.35C2.48421 8.729 2.60658 8.75664 2.71711 8.8119C2.83026 8.86716 2.92632 8.93952 3.00526 9.029C3.08684 9.11847 3.14999 9.2211 3.19474 9.3369C3.23948 9.45005 3.26184 9.56715 3.26184 9.68821C3.26184 9.80664 3.23948 9.92241 3.19474 10.0356C3.15264 10.1487 3.09211 10.25 3.01316 10.3395C2.93421 10.429 2.83947 10.5014 2.72895 10.5566C2.61842 10.6093 2.49605 10.6356 2.36184 10.6356H1.75789V11.5711C1.75789 11.629 1.72764 11.658 1.66711 11.658H1.08289C1.02763 11.658 1 11.629 1 11.5711ZM2.18421 9.35269H1.75789V10.0119H2.18421C2.28157 10.0119 2.35657 9.979 2.40921 9.91321C2.46185 9.84479 2.48816 9.76846 2.48816 9.68427C2.48816 9.64479 2.48026 9.60532 2.46447 9.56585C2.45131 9.52637 2.43157 9.49085 2.40526 9.45927C2.38158 9.42769 2.35 9.40268 2.31053 9.38427C2.27368 9.36321 2.23158 9.35269 2.18421 9.35269ZM3.68693 11.5711V8.81584C3.68693 8.75794 3.71457 8.729 3.76983 8.729H4.79612C4.98035 8.729 5.1593 8.76715 5.33299 8.84348C5.5093 8.91978 5.66587 9.02373 5.8027 9.15532C5.93956 9.28688 6.04876 9.44215 6.13035 9.62111C6.21455 9.80004 6.25667 9.99084 6.25667 10.1935C6.25667 10.3856 6.2185 10.5698 6.1422 10.7461C6.06587 10.9224 5.96192 11.079 5.83034 11.2158C5.69877 11.3501 5.5435 11.4579 5.36457 11.5395C5.18824 11.6185 4.99876 11.658 4.79612 11.658H3.76983C3.71457 11.658 3.68693 11.629 3.68693 11.5711ZM5.49086 10.1935C5.49086 10.0882 5.47114 9.98952 5.43167 9.89742C5.39482 9.80269 5.34218 9.7211 5.27378 9.65269C5.20535 9.58426 5.12376 9.53032 5.02902 9.49085C4.93693 9.44873 4.83562 9.42769 4.72509 9.42769H4.44878V10.9593H4.72509C4.83562 10.9593 4.93693 10.9395 5.02902 10.9001C5.12376 10.8579 5.20535 10.8027 5.27378 10.7343C5.34218 10.6658 5.39482 10.5856 5.43167 10.4935C5.47114 10.3987 5.49086 10.2987 5.49086 10.1935ZM6.71701 11.5711V8.81584C6.71701 8.75794 6.74464 8.729 6.79991 8.729H8.68282C8.73806 8.729 8.76572 8.75794 8.76572 8.81584V9.32111C8.76572 9.379 8.73806 9.40795 8.68282 9.40795H7.47887V10.0158H8.35914C8.41703 10.0158 8.44596 10.0461 8.44596 10.1066V10.5843C8.44596 10.6422 8.41703 10.6711 8.35914 10.6711H7.47887V11.5711C7.47887 11.629 7.44992 11.658 7.39201 11.658H6.79991C6.74464 11.658 6.71701 11.629 6.71701 11.5711Z" fill="black"/>
<path d="M1.02368 8.75269L1.66349 9.52122L1.69854 9.49204L1.73079 9.45979L1.02368 8.75269ZM2.71711 8.8119L2.26987 9.70636L2.27825 9.71046L2.71711 8.8119ZM3.00526 9.029L2.25538 9.69057L2.26079 9.69671L2.2663 9.70275L3.00526 9.029ZM3.19474 9.3369L2.26192 9.69734L2.2648 9.70462L3.19474 9.3369ZM3.19474 10.0356L2.26478 9.66791L2.26105 9.67736L2.2575 9.68688L3.19474 10.0356ZM3.01316 10.3395L3.76297 11.0012L3.76304 11.0011L3.01316 10.3395ZM2.72895 10.5566L3.15879 11.4595L3.16752 11.4554L3.17616 11.4511L2.72895 10.5566ZM1.75789 10.6356V9.63558H0.757895V10.6356H1.75789ZM1.75789 9.35269V8.35269H0.757895V9.35269H1.75789ZM1.75789 10.0119H0.757895V11.0119H1.75789V10.0119ZM2.40921 9.91321L3.19001 10.538L3.19599 10.5305L3.20183 10.5229L2.40921 9.91321ZM2.46447 9.56585L1.51584 9.88222L1.52511 9.91002L1.536 9.93724L2.46447 9.56585ZM2.40526 9.45927L1.60526 10.0593L1.6206 10.0797L1.63696 10.0994L2.40526 9.45927ZM2.31053 9.38427L1.81434 10.2525L1.85026 10.273L1.88776 10.2905L2.31053 9.38427ZM5.33299 8.84348L4.93068 9.759L4.93581 9.76122L5.33299 8.84348ZM5.8027 9.15532L5.10956 9.87612L5.10966 9.87622L5.8027 9.15532ZM6.13035 9.62111L5.2204 10.036L5.22552 10.0469L6.13035 9.62111ZM6.1422 10.7461L7.0599 11.1434L7.05995 11.1432L6.1422 10.7461ZM5.83034 11.2158L6.54448 11.9159L6.55118 11.9089L5.83034 11.2158ZM5.36457 11.5395L5.77321 12.4522L5.77946 12.4494L5.36457 11.5395ZM5.43167 9.89742L4.49969 10.2599L4.50585 10.2758L4.51255 10.2914L5.43167 9.89742ZM5.02902 9.49085L4.6131 10.4002L4.62864 10.4074L4.6444 10.4139L5.02902 9.49085ZM4.44878 9.42769V8.42769H3.44878V9.42769H4.44878ZM4.44878 10.9593H3.44878V11.9593H4.44878V10.9593ZM5.02902 10.9001L5.42302 11.8193L5.43526 11.8138L5.02902 10.9001ZM5.27378 10.7343L5.98078 11.4415L5.98098 11.4413L5.27378 10.7343ZM5.43167 10.4935L4.50859 10.1089L4.50587 10.1154L4.50324 10.122L5.43167 10.4935ZM7.47887 9.40795V8.40795H6.47887V9.40795H7.47887ZM7.47887 10.0158H6.47887V11.0158H7.47887V10.0158ZM7.47887 10.6711V9.67111H6.47887V10.6711H7.47887ZM2 11.5711V8.81584H0V11.5711H2ZM2 8.81584C2 8.95692 1.9582 9.27588 1.66349 9.52122L0.383878 7.98415C0.0575911 8.25578 0 8.61686 0 8.81584H2ZM1.73079 9.45979C1.64784 9.54275 1.54388 9.61454 1.4217 9.66341C1.30069 9.71181 1.18375 9.729 1.08289 9.729V7.729C0.811878 7.729 0.532182 7.82998 0.316577 8.04558L1.73079 9.45979ZM1.08289 9.729H2.35V7.729H1.08289V9.729ZM2.35 9.729C2.34813 9.729 2.33811 9.72877 2.32217 9.72517C2.30592 9.7215 2.28783 9.7153 2.26989 9.70633L3.16432 7.91747C2.90324 7.78693 2.62583 7.729 2.35 7.729V9.729ZM2.27825 9.71046C2.28019 9.7114 2.2776 9.71032 2.27229 9.70632C2.26687 9.70224 2.26091 9.69684 2.25538 9.69057L3.75515 8.36744C3.5843 8.17378 3.38063 8.02307 3.15596 7.91334L2.27825 9.71046ZM2.2663 9.70275C2.26512 9.70146 2.26353 9.69941 2.26215 9.69717C2.2608 9.69498 2.26091 9.69463 2.26195 9.69732L4.12752 8.97647C4.03929 8.74811 3.91138 8.53859 3.74422 8.35525L2.2663 9.70275ZM2.2648 9.70462C2.2646 9.70412 2.26363 9.70144 2.26282 9.6972C2.26201 9.69295 2.26184 9.68965 2.26184 9.68821H4.26184C4.26184 9.44065 4.21549 9.19883 4.12467 8.96917L2.2648 9.70462ZM2.26184 9.68821C2.26184 9.68405 2.26228 9.67908 2.26322 9.6742C2.26415 9.66937 2.2651 9.66709 2.26478 9.66791L4.12469 10.4033C4.21442 10.1763 4.26184 9.93598 4.26184 9.68821H2.26184ZM2.2575 9.68688C2.25718 9.68774 2.25767 9.68629 2.2593 9.68356C2.26094 9.68081 2.26252 9.67881 2.26327 9.67796L3.76304 11.0011C3.924 10.8186 4.04761 10.611 4.13197 10.3843L2.2575 9.68688ZM2.26334 9.67788C2.26697 9.67378 2.27135 9.66968 2.27585 9.66624C2.28028 9.66286 2.28274 9.6617 2.28173 9.66221L3.17616 11.4511C3.39743 11.3404 3.59604 11.1904 3.76297 11.0012L2.26334 9.67788ZM2.2991 9.65373C2.31542 9.64596 2.33103 9.64099 2.344 9.6382C2.35667 9.63547 2.36329 9.63558 2.36184 9.63558V11.6356C2.63036 11.6356 2.90156 11.582 3.15879 11.4595L2.2991 9.65373ZM2.36184 9.63558H1.75789V11.6356H2.36184V9.63558ZM0.757895 10.6356V11.5711H2.75789V10.6356H0.757895ZM0.757895 11.5711C0.757895 11.4343 0.795912 11.1509 1.04394 10.9136C1.28369 10.6843 1.55404 10.658 1.66711 10.658V12.658C1.8407 12.658 2.15645 12.6171 2.42646 12.3588C2.70475 12.0926 2.75789 11.7658 2.75789 11.5711H0.757895ZM1.66711 10.658H1.08289V12.658H1.66711V10.658ZM1.08289 10.658C1.22162 10.658 1.5063 10.6967 1.74409 10.9458C1.97358 11.1862 2 11.4572 2 11.5711H0C0 11.7429 0.0402359 12.0573 0.297352 12.3267C0.562774 12.6048 0.888904 12.658 1.08289 12.658V10.658ZM2.18421 8.35269H1.75789V10.3527H2.18421V8.35269ZM0.757895 9.35269V10.0119H2.75789V9.35269H0.757895ZM1.75789 11.0119H2.18421V9.0119H1.75789V11.0119ZM2.18421 11.0119C2.53226 11.0119 2.91676 10.8795 3.19001 10.538L1.62841 9.28843C1.70006 9.19888 1.7969 9.12184 1.9118 9.07144C2.02251 9.02289 2.1203 9.0119 2.18421 9.0119V11.0119ZM3.20183 10.5229C3.38533 10.2844 3.48816 9.99486 3.48816 9.68427H1.48816C1.48816 9.62027 1.49849 9.54988 1.52304 9.47869C1.54749 9.40777 1.58156 9.34904 1.61659 9.30349L3.20183 10.5229ZM3.48816 9.68427C3.48816 9.50805 3.45232 9.34287 3.39295 9.19445L1.536 9.93724C1.50821 9.86777 1.48816 9.78154 1.48816 9.68427H3.48816ZM3.41311 9.24948C3.36103 9.0933 3.28063 8.94769 3.17356 8.81918L1.63696 10.0994C1.58251 10.034 1.54159 9.95944 1.51584 9.88222L3.41311 9.24948ZM3.20526 8.85927C3.07309 8.68303 2.90617 8.55868 2.73329 8.47803L1.88776 10.2905C1.79383 10.2467 1.69007 10.1723 1.60526 10.0593L3.20526 8.85927ZM2.80672 8.51605C2.6017 8.39889 2.38487 8.35269 2.18421 8.35269V10.3527C2.07829 10.3527 1.94565 10.3275 1.81434 10.2525L2.80672 8.51605ZM4.68693 11.5711V8.81584H2.68693V11.5711H4.68693ZM4.68693 8.81584C4.68693 8.92965 4.66055 9.20074 4.43097 9.44123C4.1931 9.69039 3.90838 9.729 3.76983 9.729V7.729C3.57602 7.729 3.24984 7.78208 2.98434 8.06019C2.72713 8.32962 2.68693 8.64413 2.68693 8.81584H4.68693ZM3.76983 9.729H4.79612V7.729H3.76983V9.729ZM4.79612 9.729C4.83771 9.729 4.87996 9.7367 4.93068 9.75898L5.73529 7.92797C5.43864 7.79761 5.12298 7.729 4.79612 7.729V9.729ZM4.93581 9.76122C5.0038 9.79064 5.05985 9.82831 5.10956 9.87612L6.49585 8.43452C6.27189 8.21915 6.01479 8.04891 5.73016 7.92573L4.93581 9.76122ZM5.10966 9.87622C5.15225 9.91716 5.18926 9.96751 5.22047 10.036L7.04024 9.20625C6.90827 8.9168 6.72687 8.65661 6.49574 8.43442L5.10966 9.87622ZM5.22552 10.0469C5.2455 10.0893 5.25667 10.1343 5.25667 10.1935H7.25667C7.25667 9.84733 7.18361 9.51076 7.03519 9.19534L5.22552 10.0469ZM5.25667 10.1935C5.25667 10.2489 5.24653 10.2979 5.22444 10.349L7.05995 11.1432C7.19047 10.8416 7.25667 10.5223 7.25667 10.1935H5.25667ZM5.22449 10.3488C5.19503 10.4169 5.15733 10.473 5.10949 10.5228L6.55118 11.9089C6.76651 11.685 6.93672 11.4279 7.0599 11.1434L5.22449 10.3488ZM5.11623 10.5158C5.07469 10.5582 5.02218 10.5966 4.94967 10.6297L5.77946 12.4494C6.06482 12.3193 6.32285 12.1419 6.54444 11.9159L5.11623 10.5158ZM4.95593 10.6268C4.9144 10.6454 4.86495 10.658 4.79612 10.658V12.658C5.13258 12.658 5.46207 12.5915 5.7732 12.4522L4.95593 10.6268ZM4.79612 10.658H3.76983V12.658H4.79612V10.658ZM3.76983 10.658C3.90856 10.658 4.19324 10.6967 4.43103 10.9458C4.66051 11.1862 4.68693 11.4572 4.68693 11.5711H2.68693C2.68693 11.7429 2.72717 12.0573 2.98429 12.3267C3.24971 12.6048 3.57584 12.658 3.76983 12.658V10.658ZM6.49086 10.1935C6.49086 9.95989 6.44637 9.72643 6.3508 9.50346L4.51255 10.2914C4.49592 10.2526 4.49086 10.2165 4.49086 10.1935H6.49086ZM6.36365 9.53492C6.27915 9.31767 6.15229 9.11699 5.98088 8.94558L4.56667 10.3598C4.53208 10.3252 4.51049 10.2877 4.49969 10.2599L6.36365 9.53492ZM5.98088 8.94558C5.81452 8.77922 5.62145 8.65436 5.41363 8.56777L4.6444 10.4139C4.62606 10.4063 4.59617 10.3893 4.56667 10.3598L5.98088 8.94558ZM5.44494 8.58144C5.21064 8.47429 4.96574 8.42769 4.72509 8.42769V10.4277C4.7055 10.4277 4.66321 10.4232 4.6131 10.4002L5.44494 8.58144ZM4.72509 8.42769H4.44878V10.4277H4.72509V8.42769ZM3.44878 9.42769V10.9593H5.44878V9.42769H3.44878ZM4.44878 11.9593H4.72509V9.95927H4.44878V11.9593ZM4.72509 11.9593C4.95702 11.9593 5.19412 11.9173 5.42299 11.8192L4.63505 9.98093C4.67974 9.96178 4.71421 9.95927 4.72509 9.95927V11.9593ZM5.43526 11.8138C5.63397 11.7255 5.81955 11.6027 5.98078 11.4415L4.56677 10.0271C4.59114 10.0027 4.61355 9.99039 4.62277 9.98629L5.43526 11.8138ZM5.98098 11.4413C6.1475 11.2747 6.27427 11.0795 6.36011 10.865L4.50324 10.122C4.51538 10.0916 4.53687 10.057 4.56657 10.0273L5.98098 11.4413ZM6.35475 10.8781C6.44637 10.6582 6.49086 10.4272 6.49086 10.1935H4.49086C4.49086 10.1833 4.49185 10.1697 4.49498 10.1539C4.49811 10.138 4.50283 10.1227 4.50859 10.1089L6.35475 10.8781ZM7.71701 11.5711V8.81584H5.71701V11.5711H7.71701ZM7.71701 8.81584C7.71701 8.92965 7.69063 9.20074 7.46105 9.44123C7.22318 9.69039 6.93845 9.729 6.79991 9.729V7.729C6.6061 7.729 6.27992 7.78208 6.01442 8.06019C5.75721 8.32962 5.71701 8.64413 5.71701 8.81584H7.71701ZM6.79991 9.729H8.68282V7.729H6.79991V9.729ZM8.68282 9.729C8.54417 9.729 8.25954 9.69035 8.02173 9.44129C7.79218 9.20088 7.76572 8.92983 7.76572 8.81584H9.76572C9.76572 8.64395 9.72543 8.32948 9.46824 8.06012C9.2028 7.78213 8.87671 7.729 8.68282 7.729V9.729ZM7.76572 8.81584V9.32111H9.76572V8.81584H7.76572ZM7.76572 9.32111C7.76572 9.20703 7.79221 8.93607 8.02168 8.69571C8.2594 8.4467 8.54399 8.40795 8.68282 8.40795V10.408C8.87689 10.408 9.20293 10.3547 9.4683 10.0768C9.72539 9.80746 9.76572 9.49308 9.76572 9.32111H7.76572ZM8.68282 8.40795H7.47887V10.408H8.68282V8.40795ZM6.47887 9.40795V10.0158H8.47887V9.40795H6.47887ZM7.47887 11.0158H8.35914V9.01585H7.47887V11.0158ZM8.35914 11.0158C8.22236 11.0158 7.93883 10.9778 7.70153 10.7297C7.47222 10.4899 7.44596 10.2195 7.44596 10.1066H9.44596C9.44596 9.9332 9.40523 9.61746 9.14698 9.3474C8.88074 9.069 8.5538 9.01585 8.35914 9.01585V11.0158ZM7.44596 10.1066V10.5843H9.44596V10.1066H7.44596ZM7.44596 10.5843C7.44596 10.4592 7.47789 10.1816 7.71703 9.94241C7.95623 9.70313 8.23386 9.67111 8.35914 9.67111V11.6711C8.5423 11.6711 8.86334 11.6246 9.13148 11.3564C9.39956 11.0882 9.44596 10.7673 9.44596 10.5843H7.44596ZM8.35914 9.67111H7.47887V11.6711H8.35914V9.67111ZM6.47887 10.6711V11.5711H8.47887V10.6711H6.47887ZM6.47887 11.5711C6.47887 11.4458 6.5109 11.1682 6.75012 10.9291C6.98931 10.6899 7.26683 10.658 7.39201 10.658V12.658C7.5751 12.658 7.89605 12.6115 8.1642 12.3434C8.43238 12.0753 8.47887 11.7543 8.47887 11.5711H6.47887ZM7.39201 10.658H6.79991V12.658H7.39201V10.658ZM6.79991 10.658C6.93863 10.658 7.22332 10.6967 7.46111 10.9458C7.69059 11.1862 7.71701 11.4572 7.71701 11.5711H5.71701C5.71701 11.7429 5.75725 12.0573 6.01437 12.3267C6.27979 12.6048 6.60592 12.658 6.79991 12.658V10.658Z" fill="#1C3A6A" mask="url(#path-3-inside-1_3360_2407)"/>
<rect x="3.25" y="3.25" width="4.5" height="0.5" rx="0.25" fill="#1C3A6A" stroke="#4FC9F3" stroke-width="0.5"/>
<rect x="3.25" y="5.25" width="4.5" height="0.5" rx="0.25" fill="#1C3A6A" stroke="#4FC9F3" stroke-width="0.5"/>
<rect x="3.25" y="13.25" width="4.5" height="0.5" rx="0.25" fill="#1C3A6A" stroke="#4FC9F3" stroke-width="0.5"/>
</svg>
