<svg width="17" height="17" viewBox="0 0 17 17" fill="none" xmlns="http://www.w3.org/2000/svg">
<path d="M8.5 16.05H8.49994C6.49823 16.0479 4.5791 15.2518 3.16367 13.8363C1.74824 12.4209 0.952119 10.5018 0.95 8.50006V8.5C0.95 7.00675 1.3928 5.54704 2.2224 4.30545C3.05201 3.06386 4.23116 2.09615 5.61074 1.52471C6.99032 0.953271 8.50837 0.803756 9.97293 1.09507C11.4375 1.38639 12.7828 2.10546 13.8387 3.16135C14.8945 4.21723 15.6136 5.56251 15.9049 7.02707C16.1962 8.49163 16.0467 10.0097 15.4753 11.3893C14.9038 12.7688 13.9361 13.948 12.6946 14.7776C11.453 15.6072 9.99325 16.05 8.5 16.05ZM12.3378 2.75635C11.2018 1.99731 9.86624 1.59217 8.5 1.59217C6.66857 1.59428 4.91276 2.32274 3.61775 3.61775C2.32272 4.91278 1.59426 6.66861 1.59217 8.50006C1.59218 9.86628 1.99732 11.2018 2.75635 12.3378C3.51539 13.4738 4.59424 14.3592 5.85649 14.882C7.11873 15.4048 8.50766 15.5416 9.84765 15.2751C11.1876 15.0086 12.4185 14.3507 13.3846 13.3846C14.3506 12.4185 15.0086 11.1876 15.2751 9.84765C15.5416 8.50767 15.4048 7.11873 14.882 5.85649C14.3592 4.59425 13.4738 3.51539 12.3378 2.75635Z" fill="#1C3A6A" stroke="#1C3A6A" stroke-width="0.1"/>
<path d="M7.12806 4.89442V4.89439C7.12787 4.63724 7.20863 4.38608 7.35972 4.17269C7.51078 3.95935 7.72526 3.79345 7.97571 3.69554C8.22614 3.59763 8.50161 3.57196 8.76737 3.62167C9.03313 3.67139 9.27767 3.79433 9.46989 3.97538C9.66215 4.15645 9.79348 4.38757 9.84676 4.63967C9.90004 4.8918 9.87276 5.15312 9.7685 5.39045C9.66427 5.62773 9.48792 5.83007 9.26224 5.97221C9.03659 6.11434 8.77157 6.19004 8.50069 6.19004H8.50066C8.13778 6.18981 7.78927 6.05394 7.53175 5.81139C7.27412 5.56875 7.12855 5.23904 7.12806 4.89442ZM8.55069 4.3315V4.33202L8.50075 4.33208C8.34128 4.33228 8.1889 4.39195 8.07674 4.49722C7.96472 4.60236 7.90194 4.74432 7.90104 4.89197C7.90107 5.00244 7.93583 5.11069 8.00131 5.20306C8.06686 5.29551 8.16034 5.36799 8.27026 5.41091C8.3802 5.45382 8.50133 5.46509 8.61822 5.44318C8.7351 5.42127 8.84208 5.36725 8.92577 5.28837C9.00943 5.20952 9.06604 5.10943 9.08894 5.00094C9.11183 4.89247 9.10011 4.78001 9.05511 4.67763C9.0101 4.57521 8.93365 4.48718 8.83497 4.42504C8.75012 4.3716 8.65224 4.33947 8.55069 4.3315ZM9.48773 13.4029H7.51365C7.41207 13.4029 7.3141 13.3649 7.24142 13.2964C7.16865 13.2278 7.12716 13.1341 7.12716 13.0357V7.24704C7.12716 7.14868 7.16865 7.055 7.24142 6.98641C7.3141 6.91791 7.41207 6.87991 7.51365 6.87991H9.48773C9.58931 6.87991 9.68728 6.91791 9.75996 6.98641C9.83273 7.055 9.87422 7.14868 9.87422 7.24704V13.0357C9.87422 13.1341 9.83273 13.2278 9.75996 13.2964C9.68728 13.3649 9.58931 13.4029 9.48773 13.4029ZM7.90014 7.61417V12.6686H9.09945L9.10033 7.61417H7.90014Z" fill="#1C3A6A" stroke="#1C3A6A" stroke-width="0.1"/>
</svg>
