<svg width="23" height="15" viewBox="0 0 23 15" fill="none" xmlns="http://www.w3.org/2000/svg">
<path d="M0.209658 0H9.51614L9.7491 0.0232953L10.1218 0.069886L10.5877 0.209658L10.809 0.314487L10.9255 0.361078L11.1119 0.477554L11.2167 0.535793L11.3448 0.628974L11.4846 0.733803L11.6477 0.873575L12.1252 1.35113L12.1835 1.39772L12.265 1.4909L12.9755 2.20141V2.2247L13.0221 2.248L14.0121 3.23805L21.2104 3.2497L21.3968 3.29629L21.5831 3.38947L21.7113 3.48265L21.8044 3.57583L21.9093 3.71561L21.9675 3.85538L22.0257 4.04174V14.1403L21.9675 14.3266L21.9093 14.4781L21.8394 14.5712L21.7928 14.6295L21.7113 14.7227L21.5365 14.8391L21.4434 14.8857L21.2803 14.9207L21.1755 14.9323H4.79884L4.61248 14.909L4.496 14.8741L4.30964 14.7576L4.19316 14.6528L4.14657 14.5829L4.08833 14.513L4.03009 14.3849L3.96021 14.1869L3.92526 13.9772V6.27809H0.186363L0.0931813 6.24315L0.0465907 6.18491L0 6.06844V0.19801L0.034943 0.104829L0.116477 0.034943L0.209658 0ZM0.815337 0.50085L0.50085 0.512497V5.7656H2.44601V0.512497L1.65397 0.50085H0.815337ZM3.29629 0.50085L2.95851 0.512497V5.7656L5.68406 5.77724L6.09173 5.83548L6.27809 5.90537L6.46446 5.9869L6.67411 6.12667L6.80224 6.2315L6.94201 6.35963L8.52609 7.94371L8.59598 8.02524L8.68916 8.10678L10.0053 9.42296L10.2034 9.55109L10.413 9.63262L10.611 9.69086L10.7042 9.70251H10.9255L11.0653 9.67921L11.2516 9.62097L11.4264 9.55109L11.6127 9.43461L11.7292 9.32978L11.7991 9.27154L11.9505 9.05024L12.0087 8.93376L12.1019 8.65422L12.1252 8.52609V8.2582L12.0786 8.07183L11.9854 7.79229L11.8224 7.55934L11.2284 6.96531L11.1468 6.89542L11.0653 6.80224L10.9954 6.744L10.9139 6.65082L10.844 6.59258L10.7624 6.4994L9.07353 4.81049L9.0153 4.7639L8.93376 4.67072L8.88717 4.64742V4.62412L8.82893 4.56589L8.73575 4.48435L8.65422 4.39117L8.58433 4.33293L8.51445 4.2514H8.49115L8.46785 4.20481L6.68576 2.42272L6.63917 2.34118L6.62752 2.29459V2.21306L6.66247 2.10823L6.7207 2.03834L6.81389 2.0034H6.95366L7.05849 2.04999L7.14002 2.14317L7.2332 2.2247L7.30309 2.30624H7.32638L7.34968 2.35283L7.44286 2.43436L8.2582 3.2497H13.255L13.2085 3.17981L12.9755 2.94686L12.9173 2.87697L12.8241 2.79544L12.2999 2.2713L12.2068 2.18976L11.24 1.22301L11.042 1.07159L10.8323 0.931813L10.646 0.826984L10.3082 0.675565L10.0869 0.617326L9.7258 0.535793L9.4812 0.512497L9.02694 0.50085H3.29629ZM8.82893 3.78549V3.82044L9.28319 4.27469L9.32978 4.33293L9.42296 4.41447L9.4812 4.48435L9.57438 4.56589L9.64427 4.64742L9.73745 4.72895L9.79569 4.79884L9.88887 4.88037L10.215 5.20651H21.5016V4.21646L21.4667 4.03009L21.4084 3.93691L21.3385 3.85538L21.257 3.80879L21.1871 3.79714L8.82893 3.78549ZM10.7508 5.7423L10.8207 5.82383L10.9954 5.9869L12.2184 7.20991L12.265 7.26815H21.5016V5.7423H10.7508ZM4.46106 6.27809V7.26815L4.4727 7.27979H6.83718L7.09343 7.26815L7.02354 7.18661L6.51105 6.67411L6.38292 6.56928L6.2315 6.46446L6.09173 6.39457L5.84713 6.31304L5.64912 6.27809H4.46106ZM4.46106 7.79229V13.9656L4.48435 14.1286L4.53094 14.2218L4.58918 14.2917L4.71731 14.3849L4.82213 14.4198H21.1289L21.2453 14.3849L21.3502 14.315L21.4434 14.2218L21.4783 14.117L21.5016 13.9888V7.79229H12.5562L12.6144 8.16502L12.6261 8.2582V8.57268L12.5562 8.98035L12.463 9.17836L12.3698 9.36473L12.2184 9.57438L12.0786 9.7258L11.9156 9.86558L11.6943 10.0053L11.4264 10.1218L11.2284 10.1801L11.0653 10.2034H10.5528L10.3431 10.1684L10.1801 10.1102L9.91217 9.9937L9.81898 9.92381L9.71416 9.85393L9.55109 9.71416L9.15507 9.31814H9.13177L9.10848 9.27154L7.62922 7.79229H4.46106Z" fill="#4FC9F3"/>
<path d="M5.68594 10.75H12.0106L12.162 10.7966L12.2203 10.8432L12.2669 10.9364L12.2785 11.0528L12.2319 11.1693L12.1737 11.2392L12.0805 11.2741H5.65099L5.56946 11.2508L5.48793 11.181L5.42969 11.0645V10.983L5.47628 10.8781L5.53452 10.8082L5.68594 10.75Z" fill="#4FC9F3"/>
<path d="M5.6044 12.627H12.1038L12.1737 12.6619L12.2436 12.7551L12.2669 12.8017L12.2785 12.9065L12.2436 13.0113L12.1737 13.0929L12.0689 13.1395L11.9873 13.1511H5.67429L5.53452 13.0812L5.46463 12.9997L5.42969 12.9298V12.8366L5.48793 12.7201L5.54616 12.6619L5.6044 12.627Z" fill="#4FC9F3"/>
<rect x="14.25" y="7.2168" width="6.08591" height="6.08591" rx="3.04296" fill="white" stroke="#4FC9F3" stroke-width="0.5"/>
<path d="M16.8718 11.4617C16.8319 11.5017 16.7753 11.535 16.7253 11.535C16.6753 11.535 16.6187 11.5 16.5771 11.46L15.6445 10.5275L15.9409 10.2311L16.727 11.0171L18.8052 8.92383L19.0966 9.22524L16.8718 11.4617Z" fill="#4FC9F3"/>
</svg>
