<svg width="14" height="17" viewBox="0 0 14 17" fill="none" xmlns="http://www.w3.org/2000/svg">
<rect x="3.25" y="3.25" width="0.5" height="3.5" rx="0.25" fill="#50CD89" stroke="#50CD89" stroke-width="0.5"/>
<rect x="5.25" y="3.25" width="0.5" height="3.5" rx="0.25" fill="#50CD89" stroke="#50CD89" stroke-width="0.5"/>
<rect x="7.25" y="3.25" width="0.5" height="3.5" rx="0.25" fill="#50CD89" stroke="#50CD89" stroke-width="0.5"/>
<rect x="3.25" y="13.25" width="0.5" height="0.5" rx="0.25" fill="#50CD89" stroke="#50CD89" stroke-width="0.5"/>
<rect x="5.25" y="13.25" width="0.5" height="0.5" rx="0.25" fill="#50CD89" stroke="#50CD89" stroke-width="0.5"/>
<rect x="7.25" y="13.25" width="0.5" height="0.5" rx="0.25" fill="#50CD89" stroke="#50CD89" stroke-width="0.5"/>
<path d="M9.48438 1.19739V3.96055C9.48438 4.28757 9.74946 4.55265 10.0765 4.55265H12.8396" stroke="#50CD89"/>
<mask id="path-8-inside-1_3360_2414" fill="white">
<path d="M3.70741 8.81571L2.80757 10.1618L3.75083 11.571C3.76661 11.5973 3.76924 11.6183 3.75872 11.6341C3.75083 11.6499 3.73242 11.6578 3.70347 11.6578H3.02859C2.98123 11.6578 2.94044 11.6289 2.90624 11.571L2.38133 10.7894L1.85643 11.571C1.83275 11.6078 1.81301 11.6315 1.79723 11.642C1.78144 11.6526 1.75908 11.6578 1.73013 11.6578H1.06315C1.0342 11.6578 1.01446 11.6512 1.00395 11.6381C0.996053 11.6223 1 11.5999 1.01579 11.571L1.95904 10.1618L1.06709 8.81571C1.05131 8.79203 1.04604 8.77229 1.05131 8.7565C1.05657 8.73809 1.07366 8.72887 1.10261 8.72887H1.78539C1.81434 8.72887 1.83669 8.73546 1.85248 8.74861C1.86827 8.76177 1.88668 8.78413 1.90773 8.81571L2.38528 9.52624L2.85888 8.81571C2.87729 8.78678 2.89572 8.76572 2.91413 8.75255C2.93254 8.73676 2.95622 8.72887 2.98517 8.72887H3.66005C3.689 8.72887 3.70741 8.73809 3.71531 8.7565C3.7232 8.77493 3.72058 8.79467 3.70741 8.81571ZM4.13983 11.571V8.81571C4.13983 8.78678 4.14772 8.76572 4.16349 8.75255C4.18192 8.73676 4.20165 8.72887 4.22271 8.72887H4.81471C4.86996 8.72887 4.89759 8.75782 4.89759 8.81571V10.9591H5.99476C6.05002 10.9591 6.07764 10.9881 6.07764 11.046V11.571C6.07764 11.6289 6.05002 11.6578 5.99476 11.6578H4.22271C4.16746 11.6578 4.13983 11.6289 4.13983 11.571ZM6.88103 10.7144C6.90471 10.7328 6.93366 10.7578 6.96785 10.7894C7.00205 10.8183 7.04152 10.8486 7.08625 10.8802C7.15202 10.9249 7.21782 10.9605 7.28359 10.9868C7.352 11.0104 7.42172 11.0223 7.49276 11.0223C7.62957 11.0223 7.72167 10.9947 7.76903 10.9394C7.81901 10.8841 7.84401 10.8197 7.84401 10.746C7.84401 10.7039 7.82823 10.667 7.79665 10.6354C7.76508 10.6039 7.72694 10.5762 7.6822 10.5526C7.64011 10.5262 7.59405 10.5052 7.54407 10.4894C7.49671 10.471 7.45462 10.4552 7.41777 10.442C7.09942 10.3315 6.86129 10.2012 6.70343 10.0512C6.54818 9.90124 6.47057 9.71046 6.47057 9.47887C6.47057 9.3552 6.49558 9.24335 6.54556 9.14334C6.59554 9.04336 6.66528 8.95782 6.75473 8.88676C6.84683 8.81571 6.95734 8.76177 7.08625 8.72492C7.21517 8.68545 7.35857 8.66571 7.51644 8.66571C7.63484 8.66571 7.74929 8.67888 7.8598 8.70519C7.97293 8.73151 8.08214 8.77493 8.18737 8.83545C8.27682 8.88809 8.35446 8.94203 8.42023 8.99729C8.486 9.05255 8.51889 9.09862 8.51889 9.13545C8.51889 9.15913 8.50178 9.19071 8.46759 9.23018L8.16369 9.55387C8.14264 9.57493 8.12028 9.58545 8.0966 9.58545C8.07819 9.58545 8.06108 9.5802 8.04529 9.56966C8.03213 9.55914 8.01635 9.54597 7.99793 9.53019L7.9782 9.5144C7.92557 9.46967 7.86112 9.42625 7.78481 9.38413C7.71115 9.33941 7.63222 9.31703 7.54801 9.31703C7.46119 9.31703 7.3862 9.33151 7.32305 9.36045C7.25991 9.3894 7.22833 9.44204 7.22833 9.51834C7.22833 9.59204 7.26517 9.64861 7.33884 9.68808C7.4125 9.72755 7.52171 9.77097 7.66641 9.81834C7.80587 9.86571 7.93479 9.9144 8.05319 9.96439C8.17159 10.0144 8.27288 10.0749 8.35708 10.146C8.44391 10.2144 8.511 10.2973 8.55836 10.3947C8.60572 10.4894 8.6294 10.6052 8.6294 10.742C8.6294 10.8868 8.59915 11.0183 8.53863 11.1368C8.48075 11.2526 8.40049 11.3526 8.29788 11.4368C8.19527 11.5184 8.07424 11.5828 7.93479 11.6302C7.79533 11.6749 7.64536 11.6973 7.48487 11.6973C7.38225 11.6973 7.28096 11.6841 7.18097 11.6578C7.08099 11.6315 6.98364 11.596 6.88892 11.5512C6.79682 11.5065 6.71 11.4539 6.62844 11.3933C6.54688 11.3328 6.47452 11.267 6.41137 11.196L6.40348 11.192C6.40086 11.1868 6.39821 11.1841 6.39559 11.1841C6.39296 11.1815 6.39032 11.1789 6.38769 11.1762C6.35875 11.1447 6.34428 11.1183 6.34428 11.0973C6.34428 11.0762 6.35875 11.0512 6.38769 11.0223L6.73105 10.6947C6.75736 10.6762 6.77974 10.667 6.79815 10.667C6.8192 10.667 6.84683 10.6828 6.88103 10.7144Z"/>
</mask>
<path d="M3.70741 8.81571L2.80757 10.1618L3.75083 11.571C3.76661 11.5973 3.76924 11.6183 3.75872 11.6341C3.75083 11.6499 3.73242 11.6578 3.70347 11.6578H3.02859C2.98123 11.6578 2.94044 11.6289 2.90624 11.571L2.38133 10.7894L1.85643 11.571C1.83275 11.6078 1.81301 11.6315 1.79723 11.642C1.78144 11.6526 1.75908 11.6578 1.73013 11.6578H1.06315C1.0342 11.6578 1.01446 11.6512 1.00395 11.6381C0.996053 11.6223 1 11.5999 1.01579 11.571L1.95904 10.1618L1.06709 8.81571C1.05131 8.79203 1.04604 8.77229 1.05131 8.7565C1.05657 8.73809 1.07366 8.72887 1.10261 8.72887H1.78539C1.81434 8.72887 1.83669 8.73546 1.85248 8.74861C1.86827 8.76177 1.88668 8.78413 1.90773 8.81571L2.38528 9.52624L2.85888 8.81571C2.87729 8.78678 2.89572 8.76572 2.91413 8.75255C2.93254 8.73676 2.95622 8.72887 2.98517 8.72887H3.66005C3.689 8.72887 3.70741 8.73809 3.71531 8.7565C3.7232 8.77493 3.72058 8.79467 3.70741 8.81571ZM4.13983 11.571V8.81571C4.13983 8.78678 4.14772 8.76572 4.16349 8.75255C4.18192 8.73676 4.20165 8.72887 4.22271 8.72887H4.81471C4.86996 8.72887 4.89759 8.75782 4.89759 8.81571V10.9591H5.99476C6.05002 10.9591 6.07764 10.9881 6.07764 11.046V11.571C6.07764 11.6289 6.05002 11.6578 5.99476 11.6578H4.22271C4.16746 11.6578 4.13983 11.6289 4.13983 11.571ZM6.88103 10.7144C6.90471 10.7328 6.93366 10.7578 6.96785 10.7894C7.00205 10.8183 7.04152 10.8486 7.08625 10.8802C7.15202 10.9249 7.21782 10.9605 7.28359 10.9868C7.352 11.0104 7.42172 11.0223 7.49276 11.0223C7.62957 11.0223 7.72167 10.9947 7.76903 10.9394C7.81901 10.8841 7.84401 10.8197 7.84401 10.746C7.84401 10.7039 7.82823 10.667 7.79665 10.6354C7.76508 10.6039 7.72694 10.5762 7.6822 10.5526C7.64011 10.5262 7.59405 10.5052 7.54407 10.4894C7.49671 10.471 7.45462 10.4552 7.41777 10.442C7.09942 10.3315 6.86129 10.2012 6.70343 10.0512C6.54818 9.90124 6.47057 9.71046 6.47057 9.47887C6.47057 9.3552 6.49558 9.24335 6.54556 9.14334C6.59554 9.04336 6.66528 8.95782 6.75473 8.88676C6.84683 8.81571 6.95734 8.76177 7.08625 8.72492C7.21517 8.68545 7.35857 8.66571 7.51644 8.66571C7.63484 8.66571 7.74929 8.67888 7.8598 8.70519C7.97293 8.73151 8.08214 8.77493 8.18737 8.83545C8.27682 8.88809 8.35446 8.94203 8.42023 8.99729C8.486 9.05255 8.51889 9.09862 8.51889 9.13545C8.51889 9.15913 8.50178 9.19071 8.46759 9.23018L8.16369 9.55387C8.14264 9.57493 8.12028 9.58545 8.0966 9.58545C8.07819 9.58545 8.06108 9.5802 8.04529 9.56966C8.03213 9.55914 8.01635 9.54597 7.99793 9.53019L7.9782 9.5144C7.92557 9.46967 7.86112 9.42625 7.78481 9.38413C7.71115 9.33941 7.63222 9.31703 7.54801 9.31703C7.46119 9.31703 7.3862 9.33151 7.32305 9.36045C7.25991 9.3894 7.22833 9.44204 7.22833 9.51834C7.22833 9.59204 7.26517 9.64861 7.33884 9.68808C7.4125 9.72755 7.52171 9.77097 7.66641 9.81834C7.80587 9.86571 7.93479 9.9144 8.05319 9.96439C8.17159 10.0144 8.27288 10.0749 8.35708 10.146C8.44391 10.2144 8.511 10.2973 8.55836 10.3947C8.60572 10.4894 8.6294 10.6052 8.6294 10.742C8.6294 10.8868 8.59915 11.0183 8.53863 11.1368C8.48075 11.2526 8.40049 11.3526 8.29788 11.4368C8.19527 11.5184 8.07424 11.5828 7.93479 11.6302C7.79533 11.6749 7.64536 11.6973 7.48487 11.6973C7.38225 11.6973 7.28096 11.6841 7.18097 11.6578C7.08099 11.6315 6.98364 11.596 6.88892 11.5512C6.79682 11.5065 6.71 11.4539 6.62844 11.3933C6.54688 11.3328 6.47452 11.267 6.41137 11.196L6.40348 11.192C6.40086 11.1868 6.39821 11.1841 6.39559 11.1841C6.39296 11.1815 6.39032 11.1789 6.38769 11.1762C6.35875 11.1447 6.34428 11.1183 6.34428 11.0973C6.34428 11.0762 6.35875 11.0512 6.38769 11.0223L6.73105 10.6947C6.75736 10.6762 6.77974 10.667 6.79815 10.667C6.8192 10.667 6.84683 10.6828 6.88103 10.7144Z" fill="#50CD89"/>
<path d="M3.70741 8.81571L4.53876 9.37147L4.54716 9.35889L4.55519 9.34607L3.70741 8.81571ZM2.80757 10.1618L1.97623 9.60601L1.60447 10.1621L1.97655 10.718L2.80757 10.1618ZM3.75083 11.571L4.60847 11.0567L4.59568 11.0354L4.58185 11.0147L3.75083 11.571ZM3.75872 11.6341L2.92646 11.0797L2.89203 11.1314L2.86426 11.187L3.75872 11.6341ZM2.90624 11.571L3.7673 11.0625L3.75256 11.0375L3.7364 11.0134L2.90624 11.571ZM2.38133 10.7894L3.21149 10.2319L2.38133 8.99577L1.55118 10.2319L2.38133 10.7894ZM1.85643 11.571L1.02627 11.0134L1.02063 11.0218L1.01516 11.0304L1.85643 11.571ZM1.79723 11.642L1.2427 10.8099L1.24198 10.8103L1.79723 11.642ZM1.00395 11.6381L0.109488 12.0852L0.156731 12.1797L0.222681 12.2623L1.00395 11.6381ZM1.01579 11.571L0.184767 11.0147L0.159529 11.0524L0.13781 11.0923L1.01579 11.571ZM1.95904 10.1618L2.79006 10.718L3.16051 10.1646L2.79264 9.60939L1.95904 10.1618ZM1.06709 8.81571L1.90069 8.26334L1.89919 8.26108L1.06709 8.81571ZM1.05131 8.7565L1.99989 9.07303L2.00676 9.05245L2.01273 9.03158L1.05131 8.7565ZM1.85248 8.74861L2.49292 7.9806L2.49235 7.98013L1.85248 8.74861ZM1.90773 8.81571L1.07571 9.37047L1.07777 9.37353L1.90773 8.81571ZM2.38528 9.52624L1.55532 10.0841L2.38873 11.3241L3.21738 10.0809L2.38528 9.52624ZM2.85888 8.81571L3.69098 9.37034L3.69686 9.36151L3.70256 9.35256L2.85888 8.81571ZM2.91413 8.75255L3.49577 9.566L3.53165 9.54035L3.56513 9.51164L2.91413 8.75255ZM3.71531 8.7565L4.63458 8.36288L4.63443 8.36252L3.71531 8.7565ZM4.16349 8.75255L4.80445 9.52023L4.81408 9.51198L4.16349 8.75255ZM4.89759 10.9591H3.89759V11.9591H4.89759V10.9591ZM6.88103 10.7144L6.20261 11.4491L6.23353 11.4776L6.26675 11.5035L6.88103 10.7144ZM6.96785 10.7894L6.28944 11.5241L6.30525 11.5387L6.32169 11.5526L6.96785 10.7894ZM7.08625 10.8802L6.50956 11.6971L6.51663 11.7021L6.52378 11.707L7.08625 10.8802ZM7.28359 10.9868L6.91219 11.9152L6.93412 11.924L6.95645 11.9317L7.28359 10.9868ZM7.76903 10.9394L7.02739 10.2686L7.01842 10.2785L7.00971 10.2887L7.76903 10.9394ZM7.6822 10.5526L7.15217 11.4005L7.18259 11.4195L7.2143 11.4363L7.6822 10.5526ZM7.54407 10.4894L7.18168 11.4214L7.21191 11.4332L7.24285 11.443L7.54407 10.4894ZM7.41777 10.442L7.75427 9.5003L7.74575 9.49734L7.41777 10.442ZM6.70343 10.0512L6.00854 10.7704L6.01461 10.7762L6.70343 10.0512ZM6.54556 9.14334L5.6511 8.69619L5.65107 8.69626L6.54556 9.14334ZM6.75473 8.88676L6.14383 8.09493L6.13276 8.10373L6.75473 8.88676ZM7.08625 8.72492L7.36108 9.68642L7.37008 9.68384L7.37903 9.6811L7.08625 8.72492ZM7.8598 8.70519L7.62819 9.67801L7.63313 9.67916L7.8598 8.70519ZM8.18737 8.83545L8.69456 7.97355L8.68585 7.96855L8.18737 8.83545ZM8.46759 9.23018L9.19663 9.91465L9.21031 9.90008L9.2234 9.88498L8.46759 9.23018ZM8.16369 9.55387L8.87086 10.2609L8.88198 10.2498L8.89274 10.2383L8.16369 9.55387ZM8.04529 9.56966L7.42096 10.3508L7.45442 10.3776L7.49005 10.4013L8.04529 9.56966ZM7.99793 9.53019L8.64893 8.7711L8.636 8.76002L8.62271 8.74938L7.99793 9.53019ZM7.9782 9.5144L7.33064 10.2764L7.34189 10.286L7.35342 10.2952L7.9782 9.5144ZM7.78481 9.38413L7.26585 10.2389L7.2835 10.2496L7.30159 10.2596L7.78481 9.38413ZM7.32305 9.36045L6.90649 8.45134L6.90626 8.45145L7.32305 9.36045ZM7.66641 9.81834L7.98805 8.87142L7.97752 8.86797L7.66641 9.81834ZM8.05319 9.96439L8.4423 9.04321L8.44217 9.04315L8.05319 9.96439ZM8.35708 10.146L7.71217 10.9102L7.72496 10.921L7.7381 10.9314L8.35708 10.146ZM8.55836 10.3947L7.65905 10.8321L7.6639 10.8418L8.55836 10.3947ZM8.53863 11.1368L7.64814 10.6817L7.64414 10.6897L8.53863 11.1368ZM8.29788 11.4368L8.92025 12.2195L8.92627 12.2147L8.9322 12.2098L8.29788 11.4368ZM7.93479 11.6302L8.24029 12.5824L8.24837 12.5798L8.25641 12.5771L7.93479 11.6302ZM7.18097 11.6578L7.43561 10.6908L7.43543 10.6907L7.18097 11.6578ZM6.88892 11.5512L6.45206 12.4508L6.4618 12.4554L6.88892 11.5512ZM6.62844 11.3933L7.22443 10.5903L7.2243 10.5903L6.62844 11.3933ZM6.41137 11.196L7.15884 10.5317L7.03088 10.3877L6.85858 10.3015L6.41137 11.196ZM6.40348 11.192L5.50902 11.6392L5.65809 11.9374L5.95627 12.0865L6.40348 11.192ZM6.39559 11.1841L5.68842 11.8912L5.98132 12.1841H6.39559V11.1841ZM6.38769 11.1762L5.65056 11.852L5.66394 11.8666L5.67788 11.8806L6.38769 11.1762ZM6.38769 11.0223L5.69735 10.2988L5.68884 10.3069L5.68052 10.3152L6.38769 11.0223ZM6.73105 10.6947L6.15756 9.87544L6.09551 9.91888L6.04071 9.97118L6.73105 10.6947ZM2.87607 8.25995L1.97623 9.60601L3.63892 10.7175L4.53876 9.37147L2.87607 8.25995ZM1.97655 10.718L2.91981 12.1272L4.58185 11.0147L3.63859 9.60552L1.97655 10.718ZM2.89318 12.0852C2.85899 12.0282 2.79419 11.9053 2.77235 11.7305C2.74767 11.5329 2.78293 11.2952 2.92646 11.0797L4.59098 12.1885C4.92947 11.6804 4.68918 11.1913 4.60847 11.0567L2.89318 12.0852ZM2.86426 11.187C2.98028 10.9549 3.16792 10.8087 3.34497 10.7328C3.5027 10.6652 3.63788 10.6578 3.70347 10.6578V12.6578C3.85118 12.6578 4.38463 12.6185 4.65318 12.0813L2.86426 11.187ZM3.70347 10.6578H3.02859V12.6578H3.70347V10.6578ZM3.02859 10.6578C3.22419 10.6578 3.40248 10.7221 3.54124 10.8206C3.66771 10.9104 3.7362 11.0098 3.7673 11.0625L2.04518 12.0795C2.17583 12.3007 2.48949 12.6578 3.02859 12.6578V10.6578ZM3.7364 11.0134L3.21149 10.2319L1.55118 11.3469L2.07608 12.1285L3.7364 11.0134ZM1.55118 10.2319L1.02627 11.0134L2.68658 12.1285L3.21149 11.3469L1.55118 10.2319ZM1.01516 11.0304C1.01714 11.0273 1.03071 11.0061 1.05559 10.9763C1.06854 10.9607 1.08874 10.9378 1.11617 10.9113C1.14268 10.8858 1.18487 10.8484 1.2427 10.8099L2.35176 12.4742C2.55709 12.3374 2.67215 12.1513 2.69769 12.1116L1.01516 11.0304ZM1.24198 10.8103C1.45623 10.6673 1.6588 10.6578 1.73013 10.6578V12.6578C1.85937 12.6578 2.10665 12.6378 2.35247 12.4737L1.24198 10.8103ZM1.73013 10.6578H1.06315V12.6578H1.73013V10.6578ZM1.06315 10.6578C1.11724 10.6578 1.21943 10.6631 1.34284 10.7042C1.47292 10.7476 1.64446 10.8377 1.78521 11.0139L0.222681 12.2623C0.524217 12.6397 0.941662 12.6578 1.06315 12.6578V10.6578ZM1.89841 11.1909C2.01476 11.4237 2.01036 11.6439 1.98577 11.7832C1.96248 11.9153 1.91645 12.0081 1.89376 12.0497L0.13781 11.0923C0.0947773 11.1712 -0.134008 11.5982 0.109488 12.0852L1.89841 11.1909ZM1.84681 12.1272L2.79006 10.718L1.12802 9.60552L0.184767 11.0147L1.84681 12.1272ZM2.79264 9.60939L1.90069 8.26334L0.233497 9.36808L1.12544 10.7141L2.79264 9.60939ZM1.89919 8.26108C1.92989 8.30714 1.9833 8.3971 2.01753 8.52545C2.05375 8.66126 2.07199 8.85696 1.99989 9.07303L0.102725 8.43997C-0.0522718 8.90446 0.166575 9.26769 0.234997 9.37034L1.89919 8.26108ZM2.01273 9.03158C1.9401 9.28542 1.76757 9.49482 1.54237 9.61614C1.35109 9.7192 1.17888 9.72887 1.10261 9.72887V7.72887C0.997394 7.72887 0.802173 7.74314 0.593785 7.85541C0.351487 7.98595 0.167784 8.20916 0.089886 8.48142L2.01273 9.03158ZM1.10261 9.72887H1.78539V7.72887H1.10261V9.72887ZM1.78539 9.72887C1.67408 9.72887 1.43721 9.7041 1.21261 9.51709L2.49235 7.98013C2.23617 7.76682 1.95459 7.72887 1.78539 7.72887V9.72887ZM1.21204 9.51661C1.15707 9.47077 1.12185 9.42997 1.10614 9.41089C1.08863 9.38962 1.07847 9.3746 1.07572 9.37046L2.73975 8.26096C2.70236 8.20489 2.62039 8.0869 2.49292 7.9806L1.21204 9.51661ZM1.07777 9.37353L1.55532 10.0841L3.21524 8.96842L2.73769 8.25789L1.07777 9.37353ZM3.21738 10.0809L3.69098 9.37034L2.02678 8.26108L1.55318 8.97161L3.21738 10.0809ZM3.70256 9.35256C3.69033 9.37177 3.66973 9.4017 3.6391 9.4367C3.60887 9.47125 3.56199 9.51866 3.49577 9.566L2.3325 7.9391C2.17056 8.05489 2.07063 8.19175 2.0152 8.27887L3.70256 9.35256ZM3.56513 9.51164C3.36861 9.68017 3.1466 9.72887 2.98517 9.72887V7.72887C2.76585 7.72887 2.49648 7.79336 2.26314 7.99347L3.56513 9.51164ZM2.98517 9.72887H3.66005V7.72887H2.98517V9.72887ZM3.66005 9.72887C3.57826 9.72887 3.42249 9.71731 3.2482 9.63013C3.05225 9.53211 2.88813 9.36497 2.79619 9.15048L4.63443 8.36252C4.40094 7.81782 3.8821 7.72887 3.66005 7.72887V9.72887ZM2.79603 9.15012C2.72966 8.99512 2.70536 8.82315 2.72801 8.65308C2.74958 8.49118 2.8086 8.36694 2.85964 8.28535L4.55519 9.34607C4.69572 9.12143 4.80236 8.75471 4.63458 8.36288L2.79603 9.15012ZM5.13983 11.571V8.81571H3.13983V11.571H5.13983ZM5.13983 8.81571C5.13983 8.95712 5.0979 9.27512 4.8044 9.52017L3.52258 7.98494C3.19755 8.25632 3.13983 8.61643 3.13983 8.81571H5.13983ZM4.81408 9.51198C4.68071 9.62624 4.47635 9.72887 4.22271 9.72887V7.72887C3.92696 7.72887 3.68313 7.84729 3.5129 7.99312L4.81408 9.51198ZM4.22271 9.72887H4.81471V7.72887H4.22271V9.72887ZM4.81471 9.72887C4.67592 9.72887 4.39121 9.69013 4.15343 9.44097C3.92399 9.20055 3.89759 8.92958 3.89759 8.81571H5.89759C5.89759 8.64395 5.85737 8.32956 5.60031 8.06019C5.3349 7.78208 5.00876 7.72887 4.81471 7.72887V9.72887ZM3.89759 8.81571V10.9591H5.89759V8.81571H3.89759ZM4.89759 11.9591H5.99476V9.95913H4.89759V11.9591ZM5.99476 11.9591C5.85597 11.9591 5.57126 11.9204 5.33349 11.6712C5.10405 11.4308 5.07764 11.1598 5.07764 11.046H7.07764C7.07764 10.8742 7.03743 10.5598 6.78036 10.2905C6.51496 10.0123 6.18881 9.95913 5.99476 9.95913V11.9591ZM5.07764 11.046V11.571H7.07764V11.046H5.07764ZM5.07764 11.571C5.07764 11.4572 5.10401 11.1861 5.33355 10.9457C5.5714 10.6965 5.85615 10.6578 5.99476 10.6578V12.6578C6.18863 12.6578 6.51482 12.6047 6.7803 12.3266C7.03747 12.0571 7.07764 11.7427 7.07764 11.571H5.07764ZM5.99476 10.6578H4.22271V12.6578H5.99476V10.6578ZM4.22271 10.6578C4.36132 10.6578 4.64608 10.6965 4.88393 10.9457C5.11347 11.1861 5.13983 11.4572 5.13983 11.571H3.13983C3.13983 11.7427 3.18 12.0571 3.43717 12.3266C3.70265 12.6047 4.02884 12.6578 4.22271 12.6578V10.6578ZM6.26675 11.5035C6.26224 11.5 6.26205 11.4996 6.26688 11.5038C6.27146 11.5077 6.27888 11.5143 6.28944 11.5241L7.64627 10.0547C7.60101 10.0129 7.54943 9.96744 7.49531 9.92531L6.26675 11.5035ZM6.32169 11.5526C6.38257 11.6041 6.44601 11.6523 6.50956 11.6971L7.66295 10.0632C7.63702 10.0449 7.62154 10.0326 7.61402 10.0262L6.32169 11.5526ZM6.52378 11.707C6.64226 11.7876 6.77168 11.859 6.91219 11.9152L7.65499 10.0583C7.66395 10.0619 7.66179 10.0623 7.64873 10.0534L6.52378 11.707ZM6.95645 11.9317C7.12803 11.9911 7.30821 12.0223 7.49276 12.0223V10.0223C7.53523 10.0223 7.57598 10.0298 7.61072 10.0418L6.95645 11.9317ZM7.49276 12.0223C7.68621 12.0223 8.17829 11.9986 8.52834 11.5901L7.00971 10.2887C7.14482 10.131 7.29733 10.0677 7.37705 10.0438C7.45442 10.0205 7.50136 10.0223 7.49276 10.0223V12.0223ZM8.51067 11.6102C8.72478 11.3735 8.84401 11.0708 8.84401 10.746H6.84401C6.84401 10.6673 6.85783 10.5785 6.8929 10.4881C6.92789 10.3978 6.97688 10.3244 7.02739 10.2686L8.51067 11.6102ZM8.84401 10.746C8.84401 10.4214 8.71029 10.1349 8.50382 9.9284L7.08948 11.3425C7.02556 11.2786 6.96061 11.1917 6.913 11.0806C6.8649 10.9684 6.84401 10.8534 6.84401 10.746H8.84401ZM8.50382 9.9284C8.39312 9.81768 8.27147 9.73303 8.1501 9.66877L7.2143 11.4363C7.1824 11.4194 7.13704 11.3901 7.08948 11.3425L8.50382 9.9284ZM8.21223 9.70458C8.09474 9.63114 7.97119 9.57561 7.84528 9.53584L7.24285 11.443C7.21691 11.4348 7.18548 11.4214 7.15217 11.4005L8.21223 9.70458ZM7.90646 9.55737C7.85296 9.53657 7.80194 9.51738 7.75426 9.50034L7.08129 11.3837C7.10729 11.393 7.14046 11.4054 7.18168 11.4214L7.90646 9.55737ZM7.74575 9.49734C7.49571 9.41053 7.40589 9.33926 7.39224 9.3263L6.01461 10.7762C6.3167 11.0632 6.70312 11.2525 7.0898 11.3867L7.74575 9.49734ZM7.39829 9.33209C7.41588 9.34909 7.43889 9.37906 7.45507 9.41882C7.47064 9.45709 7.47057 9.48149 7.47057 9.47887H5.47057C5.47057 9.95966 5.64305 10.4172 6.00857 10.7704L7.39829 9.33209ZM7.47057 9.47887C7.47057 9.48467 7.46995 9.49929 7.46524 9.52035C7.46045 9.54179 7.45231 9.5659 7.44005 9.59042L5.65107 8.69626C5.52462 8.94926 5.47057 9.21666 5.47057 9.47887H7.47057ZM7.44002 9.59049C7.43256 9.60542 7.42262 9.62111 7.41042 9.63607C7.39826 9.65098 7.38632 9.66216 7.37671 9.6698L6.13276 8.10373C5.93166 8.26347 5.76779 8.46278 5.6511 8.69619L7.44002 9.59049ZM7.36558 9.67851C7.35503 9.68665 7.34751 9.69061 7.34537 9.69166C7.34346 9.69259 7.34796 9.69017 7.36108 9.68642L6.81143 7.76343C6.57919 7.82981 6.35036 7.93571 6.14389 8.09501L7.36558 9.67851ZM7.37903 9.6811C7.39848 9.67515 7.44129 9.66571 7.51644 9.66571V7.66571C7.27586 7.66571 7.03187 7.69575 6.79348 7.76874L7.37903 9.6811ZM7.51644 9.66571C7.56008 9.66571 7.59665 9.67048 7.62819 9.67799L8.0914 7.73238C7.90194 7.68727 7.7096 7.66571 7.51644 7.66571V9.66571ZM7.63313 9.67916C7.64672 9.68232 7.66472 9.68845 7.68889 9.70235L8.68585 7.96855C8.49955 7.86142 8.29914 7.78071 8.08647 7.73121L7.63313 9.67916ZM7.68021 9.6973C7.73134 9.72738 7.76157 9.75 7.77693 9.76291L9.06352 8.23167C8.94734 8.13405 8.82231 8.04879 8.69454 7.9736L7.68021 9.6973ZM7.77693 9.76291C7.77498 9.76127 7.73107 9.72535 7.68043 9.65444C7.63662 9.59309 7.51889 9.41012 7.51889 9.13545H9.51889C9.51889 8.82395 9.38472 8.59953 9.30802 8.49212C9.22448 8.37516 9.13124 8.28857 9.06352 8.23167L7.77693 9.76291ZM7.51889 9.13545C7.51889 8.91682 7.59364 8.76178 7.62676 8.70063C7.6645 8.63096 7.70077 8.5881 7.71178 8.57539L9.2234 9.88498C9.2686 9.8328 9.33053 9.75441 9.38537 9.65316C9.43559 9.56043 9.51889 9.37777 9.51889 9.13545H7.51889ZM7.73854 8.54572L7.43465 8.8694L8.89274 10.2383L9.19663 9.91465L7.73854 8.54572ZM7.45652 8.84682C7.57217 8.73116 7.79088 8.58545 8.0966 8.58545V10.5854C8.44969 10.5854 8.7131 10.4187 8.87086 10.2609L7.45652 8.84682ZM8.0966 8.58545C8.2814 8.58545 8.45664 8.6419 8.60054 8.73797L7.49005 10.4013C7.66552 10.5185 7.87497 10.5854 8.0966 10.5854V8.58545ZM8.66963 8.7885C8.66963 8.7885 8.6695 8.7884 8.66924 8.78819C8.66898 8.78798 8.6686 8.78767 8.66811 8.78727C8.6671 8.78644 8.6657 8.78529 8.66388 8.78377C8.66018 8.78068 8.65524 8.77652 8.64893 8.7711L7.34694 10.2893C7.37045 10.3094 7.39568 10.3306 7.42096 10.3508L8.66963 8.7885ZM8.62271 8.74938L8.60298 8.73359L7.35342 10.2952L7.37316 10.311L8.62271 8.74938ZM8.62576 8.75238C8.51116 8.65499 8.38844 8.57509 8.26804 8.50864L7.30159 10.2596C7.31695 10.2681 7.32664 10.2743 7.3317 10.2777C7.3368 10.2811 7.33591 10.2809 7.33064 10.2764L8.62576 8.75238ZM8.30378 8.52934C8.07767 8.39206 7.81985 8.31703 7.54801 8.31703V10.317C7.44458 10.317 7.34463 10.2868 7.26585 10.2389L8.30378 8.52934ZM7.54801 8.31703C7.35214 8.31703 7.12861 8.34957 6.90649 8.45134L7.73961 10.2696C7.6438 10.3135 7.57024 10.317 7.54801 10.317V8.31703ZM6.90626 8.45145C6.71637 8.53852 6.52734 8.68574 6.39448 8.90722C6.26527 9.12261 6.22833 9.34275 6.22833 9.51834H8.22833C8.22833 9.61763 8.20719 9.7733 8.10955 9.93606C8.00827 10.1049 7.8666 10.2113 7.73985 10.2694L6.90626 8.45145ZM6.22833 9.51834C6.22833 9.73048 6.28418 9.95625 6.41794 10.1617C6.54749 10.3606 6.71634 10.489 6.86652 10.5695L7.81116 8.80665C7.88767 8.84765 8.00127 8.92802 8.09398 9.0704C8.1909 9.21926 8.22833 9.3799 8.22833 9.51834H6.22833ZM6.86652 10.5695C7.01766 10.6505 7.19234 10.7154 7.35531 10.7687L7.97752 8.86797C7.91944 8.84895 7.8762 8.83323 7.84549 8.82102C7.81314 8.80815 7.80432 8.80298 7.81116 8.80665L6.86652 10.5695ZM7.34479 10.7652C7.46464 10.8059 7.5708 10.8462 7.6642 10.8856L8.44217 9.04315C8.29877 8.9826 8.1471 8.9255 7.98803 8.87147L7.34479 10.7652ZM7.66407 10.8856C7.70492 10.9028 7.71647 10.9139 7.71217 10.9102L9.00199 9.38171C8.82929 9.23598 8.63825 9.12598 8.4423 9.04321L7.66407 10.8856ZM7.7381 10.9314C7.72523 10.9212 7.71015 10.907 7.69522 10.8886C7.68024 10.8701 7.66815 10.8507 7.65911 10.8321L9.45761 9.95723C9.34285 9.7213 9.17878 9.52033 8.97606 9.36056L7.7381 10.9314ZM7.6639 10.8418C7.62461 10.7632 7.6294 10.7166 7.6294 10.742H9.6294C9.6294 10.4938 9.58683 10.2156 9.45282 9.94751L7.6639 10.8418ZM7.6294 10.742C7.6294 10.7444 7.6292 10.738 7.63214 10.7252C7.63517 10.712 7.64044 10.6968 7.64818 10.6817L9.42907 11.5919C9.56784 11.3203 9.6294 11.0307 9.6294 10.742H7.6294ZM7.64414 10.6897C7.64663 10.6847 7.65038 10.6786 7.65511 10.6727C7.65733 10.67 7.65935 10.6678 7.66097 10.6661C7.66177 10.6653 7.66241 10.6647 7.66286 10.6643C7.66332 10.6639 7.66356 10.6637 7.66356 10.6637L8.9322 12.2098C9.14065 12.0388 9.31077 11.8286 9.43312 11.5839L7.64414 10.6897ZM7.67551 10.654C7.67339 10.6557 7.65706 10.6684 7.61317 10.6833L8.25641 12.5771C8.49142 12.4972 8.71714 12.381 8.92025 12.2195L7.67551 10.654ZM7.62928 10.678C7.59759 10.6882 7.55159 10.6973 7.48487 10.6973V12.6973C7.73913 12.6973 7.99307 12.6617 8.24029 12.5824L7.62928 10.678ZM7.48487 10.6973C7.46873 10.6973 7.45301 10.6954 7.43561 10.6908L6.92633 12.6249C7.10891 12.6729 7.29577 12.6973 7.48487 12.6973V10.6973ZM7.43543 10.6907C7.39561 10.6803 7.35601 10.6659 7.31604 10.647L6.4618 12.4554C6.61127 12.526 6.76636 12.5828 6.92651 12.6249L7.43543 10.6907ZM7.32576 10.6517C7.2892 10.6339 7.2557 10.6136 7.22443 10.5903L6.03245 12.1963C6.1643 12.2942 6.30445 12.3791 6.45208 12.4508L7.32576 10.6517ZM7.2243 10.5903C7.19422 10.5679 7.1734 10.5481 7.15884 10.5317L5.66391 11.8603C5.77564 11.986 5.89954 12.0977 6.03258 12.1964L7.2243 10.5903ZM6.85858 10.3015L6.85069 10.2976L5.95627 12.0865L5.96416 12.0904L6.85858 10.3015ZM7.29794 10.7449C7.27278 10.6946 7.21463 10.587 7.1067 10.4791C6.99776 10.3701 6.75707 10.1841 6.39559 10.1841V12.1841C6.03673 12.1841 5.79867 11.9995 5.69236 11.8932C5.58707 11.7878 5.53155 11.6842 5.50902 11.6392L7.29794 10.7449ZM7.10276 10.4771C7.10111 10.4754 7.09856 10.4729 7.0982 10.4725C7.09723 10.4716 7.09719 10.4715 7.09751 10.4718L5.67788 11.8806C5.68082 11.8836 5.68342 11.8862 5.68508 11.8878C5.68736 11.8901 5.68744 11.8902 5.68842 11.8912L7.10276 10.4771ZM7.12483 10.5005C7.14346 10.5208 7.1877 10.5715 7.23139 10.651C7.27286 10.7264 7.34428 10.8828 7.34428 11.0973H5.34428C5.34428 11.5246 5.60109 11.798 5.65056 11.852L7.12483 10.5005ZM7.34428 11.0973C7.34428 11.3162 7.2701 11.4782 7.22063 11.5637C7.17038 11.6505 7.11859 11.7056 7.09486 11.7293L5.68052 10.3152C5.6198 10.376 5.34428 10.6514 5.34428 11.0973H7.34428ZM7.07804 11.7458L7.4214 11.4181L6.04071 9.97118L5.69735 10.2988L7.07804 11.7458ZM7.30454 11.5139C7.27581 11.534 7.22301 11.5679 7.14838 11.5986C7.07481 11.6289 6.95362 11.667 6.79815 11.667V9.66703C6.47157 9.66703 6.24118 9.81691 6.15756 9.87544L7.30454 11.5139ZM6.79815 11.667C6.5677 11.667 6.40448 11.5848 6.33844 11.5471C6.26413 11.5046 6.21797 11.4633 6.20261 11.4491L7.55944 9.97972C7.50988 9.93395 7.43281 9.86893 7.33087 9.81067C7.23721 9.75713 7.04965 9.66703 6.79815 9.66703V11.667Z" fill="#50CD89" mask="url(#path-8-inside-1_3360_2414)"/>
<path d="M1.39453 6.625V2.77632C1.39453 1.79528 2.18967 1 3.17053 1H9.10602C9.4676 1 9.81476 1.14179 10.073 1.39495L11.8632 3.15011L12.4697 3.80198C12.7076 4.05765 12.8399 4.39393 12.8399 4.74317V14.2237C12.8399 15.2047 12.0447 16 11.0639 16H3.17053C2.18967 16 1.39453 15.2047 1.39453 14.2237V13.6316" stroke="#50CD89" stroke-linecap="round"/>
</svg>
